<?xml version="1.0" standalone="no"?>
<!DOCTYPE svg PUBLIC "-//W3C//DTD SVG 20010904//EN"
 "http://www.w3.org/TR/2001/REC-SVG-20010904/DTD/svg10.dtd">
<svg version="1.0" xmlns="http://www.w3.org/2000/svg"
 width="512.000000pt" height="512.000000pt" viewBox="0 0 512.000000 512.000000"
 preserveAspectRatio="xMidYMid meet">
<metadata>
Created by potrace 1.16, written by Peter Selinger 2001-2019
</metadata>
<g transform="translate(0.000000,512.000000) scale(0.100000,-0.100000)"
fill="#000000" stroke="none">
<path d="M4551 4932 c-1 -38 -14 -87 -47 -170 -25 -65 -49 -121 -52 -126 -3
-5 -4 -40 -3 -77 l2 -68 -38 -10 c-21 -5 -84 -17 -140 -27 l-103 -17 0 -358
c0 -197 -3 -364 -6 -373 -9 -23 -28 -20 -63 10 l-31 26 0 599 0 598 -32 9
c-23 6 -47 3 -83 -10 -27 -9 -89 -29 -137 -44 l-88 -26 0 -54 0 -55 -60 -26
-60 -26 0 -127 0 -127 -64 -6 c-68 -6 -220 -60 -296 -104 -25 -15 -71 -51
-102 -81 l-58 -55 0 161 c0 152 -1 162 -19 162 -13 0 -20 9 -24 30 -4 17 -12
30 -20 30 -23 0 -69 110 -75 178 -2 34 -8 65 -12 67 -4 3 -10 -30 -12 -73 -5
-81 -33 -154 -69 -180 -11 -7 -19 -21 -19 -31 0 -10 -11 -23 -25 -29 l-25 -12
0 -490 0 -490 -21 0 c-21 0 -21 1 -19 308 1 169 2 322 1 340 l-1 32 -55 0 -55
0 0 325 c0 320 0 325 -20 325 -15 0 -22 8 -26 29 -6 29 -7 30 -85 33 -77 3
-81 2 -147 -38 l-67 -41 -3 -547 -2 -546 -73 0 c-48 0 -83 -6 -107 -18 -41
-20 -48 -48 -50 -192 0 -47 -6 -95 -13 -107 -12 -22 -85 -82 -99 -83 -17 0 -6
31 25 72 52 67 54 75 46 126 -5 26 -11 67 -13 92 l-5 45 9 -40 c6 -22 14 -60
18 -85 l9 -45 7 36 c4 20 4 64 -1 97 -9 54 -7 67 13 114 13 29 23 61 24 70 0
9 11 30 25 46 30 36 31 44 6 66 -26 23 -15 61 37 130 61 80 74 135 48 207 -16
44 -86 130 -99 122 -6 -4 -7 -1 -2 6 9 16 -112 131 -175 165 -25 13 -88 35
-139 47 -83 20 -103 21 -159 11 -35 -6 -89 -23 -119 -38 -144 -73 -291 -290
-328 -485 -19 -101 -36 -131 -94 -163 -25 -14 -61 -36 -80 -50 -45 -34 -94
-34 -126 -2 -16 16 -22 31 -18 42 4 12 3 15 -5 10 -39 -24 25 -96 84 -96 23 0
51 12 86 36 l53 36 -49 -46 c-28 -25 -52 -43 -55 -41 -2 3 -20 -23 -39 -58
-45 -82 -58 -95 -118 -122 -30 -13 -61 -36 -75 -56 -22 -31 -24 -45 -26 -157
-2 -120 -3 -125 -31 -156 -28 -32 -46 -69 -56 -116 -5 -25 -7 -26 -76 -22
l-70 4 0 -76 0 -76 -34 0 c-32 0 -35 3 -38 33 -2 17 -1 -56 1 -163 3 -158 6
-198 19 -213 24 -27 8 -31 -48 -11 l-50 18 0 57 c0 46 3 58 17 62 17 4 17 5 1
6 -22 1 -25 41 -3 41 8 0 15 5 15 10 0 6 -11 10 -25 10 -13 0 -36 5 -50 12
-25 11 -25 12 -25 135 l0 123 -42 -5 c-24 -4 -58 -8 -75 -11 l-33 -5 0 -64 c0
-38 5 -67 12 -71 13 -8 -14 -22 -45 -23 -16 -1 -17 1 -4 13 16 16 23 167 12
230 -6 28 -10 33 -28 28 -43 -10 -79 -72 -42 -72 8 0 15 -7 15 -15 0 -8 -7
-15 -15 -15 -8 0 -15 -4 -15 -10 0 -5 6 -10 13 -10 9 0 9 -2 0 -8 -7 -4 -11
-39 -11 -95 -1 -69 2 -87 14 -87 8 0 14 10 14 25 0 14 5 25 10 25 6 0 10 -11
10 -25 0 -25 1 -25 84 -25 67 0 85 -3 90 -16 16 -42 11 -44 -109 -44 -70 0
-115 -4 -115 -10 0 -6 45 -10 115 -10 96 0 115 -3 115 -15 0 -12 -19 -15 -115
-15 -96 0 -115 -3 -115 -15 0 -12 19 -15 115 -15 70 0 115 -4 115 -10 0 -6
-45 -10 -115 -10 -96 0 -115 -3 -115 -15 0 -12 19 -15 115 -15 150 0 153 -18
3 -22 -78 -2 -113 -7 -116 -15 -3 -10 24 -13 112 -13 96 0 116 -3 116 -15 0
-12 -19 -15 -115 -15 -100 0 -115 -2 -115 -17 0 -14 12 -15 115 -9 99 5 115 4
115 -9 0 -12 -19 -15 -115 -15 -96 0 -115 -3 -115 -15 0 -12 19 -15 115 -15
70 0 115 -4 115 -10 0 -5 -17 -10 -38 -10 -76 0 -192 -13 -192 -21 0 -5 29 -9
65 -9 53 0 63 -3 59 -15 -5 -11 -22 -15 -65 -15 -33 0 -59 -4 -59 -10 0 -6 27
-10 60 -10 47 0 60 -3 60 -15 0 -12 -13 -15 -60 -15 -79 0 -78 -18 2 -22 38
-2 63 -8 66 -15 3 -10 -14 -13 -62 -13 -53 0 -66 -3 -66 -16 0 -13 11 -15 62
-13 41 2 63 -1 66 -9 2 -8 -16 -12 -62 -12 -52 0 -66 -3 -66 -15 0 -12 14 -15
65 -15 37 0 65 -4 65 -10 0 -6 -28 -10 -65 -10 -51 0 -65 -3 -65 -15 0 -12 15
-15 75 -15 l75 0 0 130 0 130 100 0 100 0 0 -324 0 -325 -36 6 c-20 3 -39 1
-43 -4 -3 -6 -20 -18 -38 -26 -17 -9 -34 -26 -38 -37 -3 -11 -13 -20 -21 -20
-12 0 -14 31 -14 183 0 100 -4 187 -8 193 -4 7 -23 19 -42 27 -32 14 -33 15
-10 16 15 1 31 -4 38 -11 9 -9 12 -7 12 10 0 21 -4 22 -75 22 l-75 0 2 -183 3
-182 28 -3 c35 -4 30 -26 -6 -30 -37 -4 -34 -22 3 -22 20 0 30 -5 30 -15 0
-10 -10 -15 -30 -15 -20 0 -30 -5 -30 -15 0 -9 9 -15 25 -15 16 0 25 -6 25
-15 0 -9 -9 -15 -25 -15 -14 0 -25 -4 -25 -10 0 -5 11 -10 25 -10 16 0 25 -6
25 -15 0 -9 -9 -15 -25 -15 -20 0 -25 -5 -25 -25 l0 -25 140 0 c134 0 140 -1
154 -22 17 -28 30 -108 17 -108 -11 0 -21 25 -21 50 0 10 -6 22 -12 26 -7 5
-72 9 -145 11 l-133 3 0 -25 c0 -25 0 -25 100 -25 98 0 100 -1 90 -20 -9 -18
-21 -20 -101 -20 l-90 0 3 -63 3 -62 75 -3 c70 -3 100 -13 100 -33 0 -5 -40
-9 -90 -9 l-90 0 0 -104 0 -104 148 4 c81 3 193 7 249 10 l102 6 4 81 c2 51 3
36 3 -40 l0 -122 -61 -5 c-33 -4 -145 -12 -250 -19 l-190 -12 -3 -52 c-2 -29
1 -53 5 -53 4 0 80 7 168 15 88 8 167 15 175 15 8 1 -12 15 -45 33 l-60 32 46
3 c38 2 56 -3 95 -27 44 -28 94 -41 94 -24 0 4 -12 19 -26 34 l-26 27 41 7
c40 7 43 5 87 -44 34 -38 58 -55 91 -64 25 -6 42 -16 39 -23 -2 -6 -8 -32 -11
-58 -6 -36 -12 -47 -29 -51 -11 -2 -145 -18 -296 -35 -151 -17 -292 -34 -312
-37 l-38 -6 0 -173 c0 -96 3 -174 7 -174 3 0 139 27 300 60 162 33 305 60 318
60 21 0 63 -45 52 -56 -5 -5 -231 -54 -519 -114 l-158 -33 0 -63 0 -64 495 0
495 0 0 45 0 45 169 0 c222 0 325 21 405 83 34 26 55 33 135 44 138 18 131 19
131 -25 0 -22 3 -73 6 -115 l7 -77 54 0 c47 0 54 2 50 17 -24 87 -48 205 -44
209 3 3 38 10 79 15 136 16 137 16 143 53 4 18 -3 111 -14 207 -11 96 -23 210
-26 254 -3 44 -12 158 -21 254 -8 96 -12 176 -10 178 8 8 46 -126 56 -196 17
-120 32 -236 34 -258 4 -35 12 -37 50 -13 28 16 37 19 40 8 9 -24 75 -321 117
-526 35 -165 46 -202 59 -202 15 0 16 5 4 53 -8 28 -22 92 -32 142 l-19 90
236 43 c329 59 331 60 331 33 0 -17 -6 -21 -35 -21 -32 0 -35 -3 -35 -29 0
-26 4 -29 46 -35 25 -3 70 -21 99 -38 l53 -33 16 -85 c9 -47 16 -93 16 -102 0
-10 5 -18 11 -18 8 0 10 21 5 70 -4 39 -5 70 -3 70 3 0 47 -9 98 -19 122 -25
227 -37 214 -23 -5 5 -68 29 -140 52 -155 51 -263 101 -300 140 l-27 28 17
138 c56 467 123 905 158 1024 l13 45 81 0 c70 0 86 3 114 24 17 13 29 19 25
13 -26 -42 86 -1344 122 -1422 13 -26 23 -35 41 -35 24 0 31 -10 45 -77 11
-49 28 -32 21 20 l-6 47 173 1 c160 1 217 8 341 39 l27 7 0 -71 c0 -56 3 -71
15 -71 12 0 15 15 15 79 l0 78 44 13 c43 12 143 1 693 -74 18 -3 35 -1 38 3 4
8 -49 16 -490 75 l-170 22 53 18 c57 19 88 53 78 84 -6 17 9 22 136 51 149 34
486 115 551 132 l37 10 0 75 c0 67 -2 75 -17 70 -33 -9 -263 -56 -278 -56 -10
0 -15 10 -15 30 0 23 5 31 23 35 31 6 268 45 278 45 5 0 9 47 9 105 0 58 -2
105 -4 105 -2 0 -71 -9 -152 -20 -82 -11 -154 -20 -159 -20 -6 0 -16 28 -23
62 -7 35 -15 76 -19 91 l-6 29 149 -7 c82 -3 164 -8 182 -11 31 -5 32 -4 32
31 0 37 0 37 -37 31 -21 -3 -105 -6 -188 -8 -131 -3 -150 -1 -153 13 -4 23 25
29 143 29 125 0 235 10 235 21 0 5 -7 9 -15 9 -9 0 -15 9 -15 25 0 15 6 25 14
25 12 0 14 40 15 231 1 163 -2 235 -10 245 -15 18 -43 18 -59 -1 -7 -8 -24
-15 -39 -15 -15 0 -32 -5 -39 -12 -9 -9 -12 -9 -12 0 0 7 -7 12 -15 12 -12 0
-15 -16 -15 -85 0 -63 -3 -83 -12 -80 -9 4 -12 28 -10 85 2 51 0 80 -7 80 -6
0 -11 -34 -13 -82 -2 -54 -7 -83 -15 -86 -10 -3 -13 18 -13 82 0 113 -18 112
-22 -1 -2 -58 -7 -88 -15 -91 -10 -3 -13 19 -13 87 0 54 -4 91 -10 91 -6 0
-10 -41 -10 -104 0 -59 -4 -108 -10 -111 -6 -4 -10 33 -10 104 0 93 -3 111
-15 111 -13 0 -15 -19 -9 -149 6 -129 5 -151 -10 -172 -21 -30 -21 -88 0 -118
9 -13 32 -29 50 -37 41 -17 44 -17 44 -1 0 10 13 14 43 13 38 -1 42 -3 42 -26
0 -25 -1 -25 -92 -28 -56 -2 -93 1 -93 7 0 5 17 12 38 14 l37 4 -41 1 c-39 2
-42 4 -47 34 -2 18 -2 129 1 246 4 156 2 212 -7 212 -8 0 -11 -60 -12 -212 0
-200 -1 -211 -15 -173 -12 31 -14 78 -12 209 2 127 0 170 -9 173 -10 3 -13
-36 -15 -162 l-3 -167 -25 29 c-14 15 -18 22 -10 15 8 -6 16 -12 19 -12 4 0 5
67 3 150 -4 189 -22 202 -22 15 0 -83 -4 -135 -10 -135 -6 0 -10 52 -10 135 0
83 -4 135 -10 135 -6 0 -10 -50 -10 -130 0 -80 -4 -130 -10 -130 -6 0 -10 30
-11 68 0 37 -4 87 -8 112 l-8 45 -2 -37 c-1 -35 -3 -38 -31 -38 l-30 0 1 83
c0 45 6 109 13 142 l13 60 311 3 c273 2 312 4 312 18 0 12 -10 14 -47 12 -38
-2 -48 0 -51 15 -3 14 4 17 47 17 39 0 51 4 51 15 0 11 -12 15 -50 15 -43 0
-50 3 -50 20 0 17 7 20 50 20 28 0 50 5 50 10 0 6 -22 10 -50 10 -27 0 -50 5
-50 10 0 6 23 10 50 10 33 0 50 4 50 13 0 8 -15 11 -50 9 -50 -4 -50 -4 -50
27 0 31 1 31 50 31 l50 0 0 79 c0 67 -3 79 -17 83 -33 9 -41 -1 -35 -47 5 -46
-11 -64 -21 -25 -3 13 -10 18 -21 14 -11 -4 -16 -1 -16 10 0 9 8 16 20 16 11
0 20 7 20 15 0 8 -9 15 -20 15 -11 0 -20 7 -20 16 0 11 6 14 20 9 14 -5 20 -2
20 10 0 10 -7 15 -17 13 -15 -3 -19 6 -21 50 -2 34 -7 52 -15 51 -28 -3 -37 3
-37 26 0 14 -5 25 -11 25 -6 0 -9 -7 -5 -15 3 -9 0 -15 -9 -15 -11 0 -15 13
-17 43 l-1 42 -4 -37 c-3 -25 -9 -38 -19 -38 -13 0 -15 17 -12 105 l3 105 -68
0 c-51 0 -68 3 -65 13 4 9 52 13 186 15 110 1 182 6 182 12 0 6 -69 10 -180
10 l-180 0 0 29 c0 28 1 28 68 34 37 4 118 7 180 7 l112 0 -2 258 -3 257 -112
3 -113 3 0 117 c0 84 -4 125 -15 146 -11 20 -15 60 -15 133 0 74 -4 113 -15
133 -15 28 -19 30 -76 30 l-60 0 3 190 c2 135 0 190 -8 190 -13 0 -24 68 -24
151 0 37 -4 59 -11 59 -7 0 -10 14 -7 37 3 28 -6 63 -40 142 -24 58 -50 136
-57 175 l-13 71 -1 -53z m-527 2 c11 -4 16 -19 16 -51 0 -37 -3 -44 -17 -41
-14 2 -19 15 -21 51 -3 50 -3 51 22 41z m-51 -74 c-12 -10 -114 -42 -120 -37
-4 5 20 24 92 75 l30 21 3 -26 c2 -14 0 -29 -5 -33z m-1413 25 c0 -12 -13 -15
-60 -15 -47 0 -60 3 -60 15 0 12 13 15 60 15 47 0 60 -3 60 -15z m-142 -842
c1 -2 13 -3 27 -3 14 0 25 -4 25 -10 0 -5 -11 -10 -24 -10 -13 0 -31 -3 -40
-6 -14 -6 -16 34 -18 402 l-2 409 -7 -420 c-3 -231 -7 -477 -8 -547 0 -80 -5
-128 -11 -128 -7 0 -10 176 -8 540 2 297 0 540 -4 540 -5 0 -8 -243 -8 -540 0
-425 -3 -540 -12 -540 -10 0 -12 114 -8 551 l5 551 40 27 40 27 5 -421 c3
-231 7 -421 8 -422z m1396 782 c-27 -24 -52 -44 -56 -45 -5 0 -8 18 -8 39 l0
39 53 9 c28 5 54 8 56 6 3 -2 -17 -23 -45 -48z m-1204 0 c0 -12 -17 -15 -90
-15 -73 0 -90 3 -90 15 0 12 17 15 90 15 73 0 90 -3 90 -15z m1370 -346 c0
-222 -4 -358 -9 -354 -6 3 -24 30 -41 60 -69 121 -166 211 -262 246 l-38 13 0
121 0 121 48 24 c66 33 285 130 295 130 4 0 7 -162 7 -361z m573 221 c-12 -11
-65 -22 -61 -13 1 5 12 31 23 58 l20 50 6 -35 c6 -32 7 -30 10 20 l3 55 3 -64
c2 -35 0 -67 -4 -71z m-1943 78 c0 -10 -24 -13 -87 -13 -60 0 -88 4 -90 13 -4
9 18 12 86 12 66 0 91 -3 91 -12z m1993 -45 c16 -41 16 -43 -2 -43 -13 0 -20
10 -25 31 -16 81 -2 87 27 12z m-1993 7 c0 -6 -37 -10 -90 -10 -53 0 -90 4
-90 10 0 6 37 10 90 10 53 0 90 -4 90 -10z m0 -40 c0 -6 -35 -10 -84 -10 -47
0 -88 5 -91 10 -4 6 27 10 84 10 54 0 91 -4 91 -10z m363 -77 l18 -33 -47 0
-46 0 21 34 c12 18 21 42 22 52 1 18 1 18 8 -1 3 -11 14 -35 24 -52z m-411 47
c37 0 57 -4 53 -10 -7 -11 -90 -13 -147 -4 -21 4 -35 11 -32 16 4 6 20 7 36 4
17 -3 57 -6 90 -6z m2046 4 c36 -10 25 -22 -16 -17 -21 3 -55 0 -75 -5 -21 -6
-37 -6 -37 -1 0 18 86 34 128 23z m-2043 -44 c45 -7 40 -7 -42 -9 -56 0 -93 3
-93 9 0 12 63 12 135 0z m1983 -52 l11 -63 -4 63 c-3 37 -1 62 5 62 6 0 11
-28 12 -62 l2 -63 3 63 c3 52 7 63 19 58 9 -3 20 -6 24 -6 5 0 9 -25 8 -56 -1
-43 3 -60 15 -69 18 -13 24 -85 7 -85 -5 0 -10 15 -10 34 0 35 -13 46 -51 46
-14 0 -19 -8 -21 -32 l-1 -33 -4 33 c-4 31 -6 32 -50 32 -37 0 -44 3 -39 16 3
9 6 35 6 58 0 35 4 45 23 54 34 16 33 16 45 -50z m-1938 7 c0 -13 -14 -15 -87
-13 -58 2 -88 7 -91 16 -3 9 19 12 87 12 75 0 91 -3 91 -15z m-899 -15 c-76
-11 -137 -36 -208 -86 -78 -53 -82 -49 -8 7 74 55 157 89 220 88 l50 -1 -54
-8z m215 -16 c58 -34 56 -40 -3 -11 -27 14 -55 27 -63 30 -12 4 -11 6 3 6 10
1 38 -11 63 -25z m1094 6 c0 -6 -32 -10 -75 -10 -43 0 -75 4 -75 10 0 6 32 10
75 10 43 0 75 -4 75 -10z m-410 -20 c0 -6 -37 -10 -90 -10 -53 0 -90 4 -90 10
0 6 37 10 90 10 53 0 90 -4 90 -10z m0 -40 c0 -6 -37 -10 -90 -10 -53 0 -90 4
-90 10 0 6 37 10 90 10 53 0 90 -4 90 -10z m417 -252 c-1 -51 -3 -12 -3 87 0
99 2 141 3 93 2 -48 2 -129 0 -180z m39 85 c-10 -354 -26 -434 -26 -127 0 211
7 304 22 304 6 0 7 -72 4 -177z m-236 152 c0 -8 -4 -15 -10 -15 -5 0 -10 7
-10 15 0 8 5 15 10 15 6 0 10 -7 10 -15z m-962 -4 c8 -5 -1 -8 -25 -9 -21 -1
-69 -17 -108 -36 -38 -20 -61 -29 -50 -20 41 32 113 64 165 73 3 0 11 -3 18
-8z m151 -26 c34 -20 61 -38 61 -41 0 -7 -81 36 -109 57 -36 29 -18 23 48 -16z
m2511 18 c0 -12 -8 -18 -22 -18 -13 -1 -45 -5 -73 -9 -65 -10 -49 7 25 27 72
20 70 20 70 0z m-1920 -13 c0 -6 -37 -10 -90 -10 -53 0 -90 4 -90 10 0 6 37
10 90 10 53 0 90 -4 90 -10z m308 -10 c9 0 12 -63 12 -283 l0 -283 -30 -11
-30 -11 0 -106 c0 -88 -3 -106 -15 -106 -12 0 -15 -13 -15 -60 0 -33 -4 -60
-10 -60 -5 0 -10 15 -10 33 0 17 -2 224 -4 459 l-5 427 27 4 c15 2 36 3 47 1
11 -2 26 -4 33 -4z m1564 -337 c1 -216 4 -295 9 -233 3 55 6 -45 5 -235 l-1
-329 25 -7 c14 -4 55 -7 93 -8 57 -1 67 -4 67 -18 0 -17 -17 -18 -209 -18
l-209 0 -12 39 c-6 21 -14 44 -17 52 -4 11 9 14 65 14 47 0 72 -4 75 -12 3 -7
6 7 6 32 l1 45 -84 -3 -83 -3 -18 43 c-10 24 -20 80 -23 126 l-5 82 59 2 c33
1 67 2 77 1 9 0 17 4 17 9 0 4 -13 8 -30 8 l-30 0 0 349 0 349 103 20 c56 11
105 21 110 21 4 1 8 -146 9 -326z m116 301 c64 -16 72 -21 72 -42 0 -26 9 -26
-106 -6 -24 4 -35 3 -31 -3 4 -6 40 -16 82 -23 l75 -13 0 -493 c0 -272 0 -497
1 -501 0 -4 -4 -9 -10 -11 -8 -3 -11 137 -11 471 l0 474 -25 11 c-50 23 -50
24 -53 -171 -2 -100 -7 -297 -12 -437 -6 -203 -7 -165 -3 190 4 310 2 442 -5
435 -7 -7 -12 -143 -13 -395 -1 -212 -5 -430 -9 -485 -4 -57 -8 110 -8 393 -2
511 -2 516 -41 480 -11 -11 -13 -5 -7 36 3 27 6 64 6 83 0 24 4 34 13 30 6 -2
45 -13 85 -23z m-1988 4 c0 -10 -24 -13 -87 -13 -60 0 -88 4 -90 13 -4 9 18
12 86 12 66 0 91 -3 91 -12z m-693 -33 c-36 -31 -172 -105 -193 -105 -5 0 23
17 61 38 39 20 90 51 115 69 59 41 64 40 17 -2z m1765 5 c68 -32 130 -90 187
-175 57 -85 77 -157 62 -220 -8 -37 -9 -35 -10 31 -1 89 -35 162 -117 253 -79
87 -155 125 -250 126 -40 0 -67 4 -60 8 21 15 139 1 188 -23z m556 -322 l-3
-353 -22 -3 -23 -3 0 355 0 356 25 0 25 0 -2 -352z m-1628 307 c0 -12 -17 -15
-90 -15 -73 0 -90 3 -90 15 0 12 17 15 90 15 73 0 90 -3 90 -15z m-603 -62
c-36 -42 -59 -62 -109 -94 -52 -33 -171 -79 -203 -78 -11 0 2 7 30 14 135 37
294 149 282 197 -6 21 -5 22 8 5 12 -16 11 -22 -8 -44z m603 22 c0 -12 -17
-15 -90 -15 -102 0 -123 17 -27 23 34 2 74 4 90 5 18 1 27 -3 27 -13z m706 3
c4 -7 4 -10 -1 -6 -4 4 -34 -11 -66 -33 -33 -22 -59 -38 -59 -35 0 4 112 86
117 86 1 0 5 -6 9 -12z m41 6 c-3 -3 -12 -4 -19 -1 -8 3 -5 6 6 6 11 1 17 -2
13 -5z m-1295 -23 c-10 -6 -5 -12 18 -21 44 -18 80 -75 80 -127 0 -23 -3 -44
-7 -46 -5 -3 -6 16 -5 42 3 40 -1 53 -23 80 -15 17 -40 38 -56 47 -32 16 -38
34 -11 34 13 0 14 -2 4 -9z m1662 -63 c20 -16 45 -43 57 -61 17 -23 7 -17 -37
23 -32 31 -76 66 -96 79 -21 12 -38 25 -38 27 0 9 78 -38 114 -68z m-1623 -51
c6 -23 7 -66 4 -103 -7 -59 -10 -65 -39 -80 -17 -8 -46 -33 -64 -56 -36 -45
-36 -68 -2 -160 l18 -48 -40 -50 c-31 -39 -46 -50 -68 -50 -16 0 -32 5 -35 10
-3 6 -11 10 -17 10 -6 0 -1 -12 13 -26 13 -14 31 -23 40 -21 14 4 14 0 2 -37
-20 -57 -30 -66 -73 -66 -26 0 -60 14 -121 50 -109 66 -156 113 -180 181 -10
30 -18 45 -18 34 -1 -39 81 -182 146 -257 11 -12 13 -26 8 -50 -18 -80 4 -148
49 -148 17 0 27 -10 41 -39 20 -45 14 -61 -20 -61 -27 0 -27 1 -88 85 -24 33
-83 101 -130 152 l-87 91 22 38 c19 32 23 57 26 141 4 95 14 129 25 86 3 -10
5 -1 6 20 0 20 -3 37 -9 37 -5 0 -10 7 -10 15 0 8 -4 15 -10 15 -5 0 -10 -7
-10 -15 0 -32 -22 -12 -47 41 -20 43 -24 66 -20 101 9 86 78 119 111 55 21
-40 47 -60 107 -81 97 -34 188 -80 199 -101 13 -24 47 -26 72 -3 22 20 24 37
2 29 -11 -4 -14 0 -12 17 2 12 8 25 13 29 14 11 -27 9 -44 -1 -8 -5 -11 -16
-8 -25 5 -12 -6 -10 -51 10 -31 14 -81 35 -109 46 -73 29 -67 49 17 62 99 15
169 46 231 104 33 30 67 68 75 85 l16 29 29 -28 c16 -15 34 -46 40 -67z m512
78 c-3 -11 -125 -19 -160 -10 -13 3 -23 10 -23 16 0 6 34 9 93 7 55 -2 91 -7
90 -13z m-1163 -74 c-97 -107 -127 -168 -145 -291 -18 -122 -55 -178 -165
-248 -44 -28 -78 -47 -74 -41 3 6 36 30 73 53 110 72 127 99 159 257 25 122
59 187 140 271 36 38 67 68 69 68 2 0 -23 -31 -57 -69z m2190 -26 c140 -70
188 -102 155 -102 -7 0 -13 4 -12 9 1 4 -74 46 -168 93 -93 47 -159 82 -145
79 14 -4 90 -39 170 -79z m982 -117 c-4 -284 -9 -294 -11 -25 0 125 2 227 7
227 4 0 6 -91 4 -202z m30 -282 c-1 -296 -6 -466 -12 -466 -6 0 -10 85 -10
228 0 295 12 726 19 713 3 -5 5 -219 3 -475z m-2033 458 c14 -13 -24 -19 -101
-16 -72 3 -88 6 -88 19 0 13 12 15 93 8 50 -4 94 -9 96 -11z m-822 -20 c-3 -3
-12 -4 -19 -1 -8 3 -5 6 6 6 11 1 17 -2 13 -5z m-50 -10 c-3 -3 -12 -4 -19 -1
-8 3 -5 6 6 6 11 1 17 -2 13 -5z m723 -11 c0 -7 -9 -13 -20 -13 -11 0 -20 6
-20 14 0 9 9 14 20 13 11 -1 20 -7 20 -14z m755 10 c-53 -12 -88 -27 -118 -51
l-32 -26 24 26 c30 34 78 58 116 57 20 -1 23 -3 10 -6z m-1552 -10 c-7 -2 -19
-2 -25 0 -7 3 -2 5 12 5 14 0 19 -2 13 -5z m-452 -54 c-6 -24 -11 -60 -12 -79
-2 -31 -3 -32 -6 -7 -5 28 15 142 23 134 3 -2 0 -24 -5 -48z m1249 21 c0 -5
-9 -10 -20 -10 -11 0 -20 5 -20 10 0 6 9 10 20 10 11 0 20 -4 20 -10z m918
-103 c86 -67 173 -93 320 -98 61 -2 62 -3 45 -22 -10 -11 -12 -17 -6 -13 18
10 53 -11 64 -41 14 -38 -30 -131 -70 -146 -30 -11 -41 -31 -41 -77 -1 -130
-265 -336 -345 -270 -9 8 -26 32 -37 54 -11 23 -40 71 -65 108 -45 65 -66 130
-55 170 4 16 11 19 33 14 17 -3 32 0 39 9 20 24 -27 97 -70 111 -26 9 -37 19
-41 40 -12 53 -9 105 7 137 21 41 84 111 84 95 1 -19 154 -123 248 -168 50
-24 101 -58 128 -86 37 -36 48 -43 60 -33 8 6 14 20 14 31 0 11 9 33 21 49
l20 29 -74 0 c-46 0 -99 7 -136 19 -65 20 -194 107 -252 169 -31 33 -29 32 19
-9 30 -24 70 -57 90 -72z m95 44 c102 -45 169 -68 339 -115 79 -22 123 -64
165 -156 19 -41 51 -93 71 -115 l37 -39 -35 26 c-24 17 -50 55 -83 122 -59
116 -80 131 -237 171 -97 24 -201 64 -340 129 -98 46 -32 27 83 -23z m516 -98
c0 -82 -3 -139 -7 -128 -7 21 -4 275 4 275 2 0 4 -66 3 -147z m-1529 127 c0
-5 -9 -10 -20 -10 -11 0 -20 5 -20 10 0 6 9 10 20 10 11 0 20 -4 20 -10z
m-807 -7 c-7 -2 -21 -2 -30 0 -10 3 -4 5 12 5 17 0 24 -2 18 -5z m1410 -18
c-7 -21 -13 -19 -13 6 0 11 4 18 10 14 5 -3 7 -12 3 -20z m117 15 c-19 -5 -45
-20 -57 -35 -13 -14 -23 -22 -23 -16 0 19 62 61 88 60 24 -1 23 -2 -8 -9z
m-722 -28 c3 -9 -2 -13 -14 -10 -9 1 -19 9 -22 16 -3 9 2 13 14 10 9 -1 19 -9
22 -16z m2 -32 c0 -5 -9 -10 -20 -10 -11 0 -20 5 -20 10 0 6 9 10 20 10 11 0
20 -4 20 -10z m637 -42 c-3 -7 -5 -2 -5 12 0 14 2 19 5 13 2 -7 2 -19 0 -25z
m-1698 -183 c31 -110 4 -215 -72 -280 -39 -33 -144 -81 -155 -71 -3 3 4 8 14
12 93 29 162 81 195 145 21 43 25 123 9 179 -21 71 -29 127 -22 170 6 42 7 40
13 -35 3 -44 11 -98 18 -120z m1047 155 c8 0 14 -5 14 -11 0 -7 -14 -10 -36
-7 l-35 4 1 -140 c2 -193 -2 -232 -10 -106 -14 199 -12 258 8 263 9 3 23 3 30
1 8 -2 20 -4 28 -4z m-373 -17 c-4 -10 -12 -22 -20 -26 -7 -4 -13 -19 -13 -32
0 -20 -5 -25 -25 -25 -35 0 -32 25 9 66 37 37 59 44 49 17z m974 -5 c-3 -8 -6
-5 -6 6 -1 11 2 17 5 13 3 -3 4 -12 1 -19z m-587 -29 c0 -5 -11 -9 -25 -9 -14
0 -25 6 -25 14 0 9 8 12 25 8 14 -2 25 -8 25 -13z m-1269 -36 c-16 -31 -63
-69 -151 -123 -179 -110 -206 -147 -217 -291 l-6 -94 39 35 c21 20 55 45 74
57 37 22 148 58 156 50 3 -2 -7 -8 -21 -11 -67 -17 -140 -51 -186 -88 -52 -41
-53 -42 -33 -105 3 -10 -3 -4 -13 12 -28 46 -25 215 5 272 26 50 107 120 212
183 41 25 91 62 110 82 40 42 44 45 31 21z m669 7 c0 -5 -2 -10 -4 -10 -3 0
-8 5 -11 10 -3 6 -1 10 4 10 6 0 11 -4 11 -10z m590 0 c12 -8 9 -10 -12 -10
-16 0 -28 5 -28 10 0 13 20 13 40 0z m2389 -123 c1 -69 -2 -89 -14 -93 -11 -4
-15 -21 -15 -57 0 -63 -5 -58 -13 11 -6 48 -4 52 15 52 20 0 20 4 16 113 -2
61 -1 101 3 87 4 -14 7 -65 8 -113z m-2749 114 c0 -12 -20 -25 -27 -18 -7 7 6
27 18 27 5 0 9 -4 9 -9z m-40 -62 c0 -15 -5 -40 -11 -56 l-11 -28 -14 45 c-20
67 -19 78 11 72 20 -3 25 -10 25 -33z m410 31 c0 -5 -11 -10 -25 -10 -14 0
-25 5 -25 10 0 6 11 10 25 10 14 0 25 -4 25 -10z m1393 -32 c3 -21 2 -37 -3
-35 -12 3 -70 -73 -70 -94 0 -10 -4 -20 -9 -24 -19 -11 7 52 38 95 18 26 31
55 31 73 0 39 6 32 13 -15z m-1393 -12 c0 -6 -11 -11 -25 -11 -16 0 -25 6 -25
16 0 12 7 15 25 11 14 -2 25 -9 25 -16z m610 -343 l0 -348 -27 -52 c-16 -29
-32 -51 -38 -50 -6 2 -11 147 -13 400 l-2 397 40 0 40 0 0 -347z m145 333 c16
-12 17 -16 6 -30 -7 -9 -17 -16 -21 -16 -6 0 -30 44 -30 55 0 10 27 4 45 -9z
m-755 -31 c0 -9 -9 -15 -25 -15 -16 0 -25 6 -25 15 0 9 9 15 25 15 16 0 25 -6
25 -15z m0 -35 c0 -5 -11 -10 -25 -10 -14 0 -25 5 -25 10 0 6 11 10 25 10 14
0 25 -4 25 -10z m1498 -144 c37 -42 60 -82 82 -140 47 -126 59 -145 110 -171
25 -13 41 -24 37 -25 -4 0 -26 9 -48 20 -44 23 -71 61 -95 135 -24 73 -47 114
-94 170 -42 51 -90 134 -90 157 0 7 11 -10 24 -37 12 -28 46 -77 74 -109z
m182 -73 c28 -76 24 -90 -6 -18 -16 40 -45 81 -87 125 -97 100 -102 114 -9 25
64 -61 87 -91 102 -132z m-1680 187 c0 -5 -11 -10 -25 -10 -14 0 -25 5 -25 10
0 6 11 10 25 10 14 0 25 -4 25 -10z m-195 -50 c0 -34 -1 -35 -44 -40 -25 -3
-46 -11 -49 -17 -3 -10 5 -11 30 -5 42 9 218 9 241 0 15 -7 17 -27 17 -228 0
-140 -4 -220 -10 -220 -5 0 -11 26 -12 58 l-2 57 -3 -57 c-2 -32 -8 -58 -13
-58 -6 0 -10 76 -10 189 0 104 -3 203 -6 220 -14 68 -24 24 -27 -121 l-3 -153
-2 158 c-1 96 -6 157 -12 157 -6 0 -10 -82 -10 -225 l0 -225 -22 -4 c-13 -3
-62 -7 -109 -10 l-86 -6 -7 38 c-8 52 -8 517 1 526 4 4 37 6 73 4 l65 -3 0
-35z m1465 -8 c0 -13 14 -66 31 -117 l31 -94 -41 -50 c-83 -99 -198 -193 -253
-206 l-27 -7 20 64 c11 39 16 76 13 96 -6 29 -2 37 37 72 24 22 49 38 56 36
26 -10 92 123 108 218 5 29 9 36 16 25 5 -8 9 -24 9 -37z m-2766 -2 c-10 -16
-20 -28 -22 -26 -4 5 28 56 35 56 2 0 -4 -13 -13 -30z m1496 20 c0 -5 -11 -10
-25 -10 -14 0 -25 5 -25 10 0 6 11 10 25 10 14 0 25 -4 25 -10z m0 -41 c0 -5
-11 -9 -25 -9 -14 0 -25 6 -25 14 0 9 8 12 25 8 14 -2 25 -8 25 -13z m1324
-19 c3 -14 27 -51 54 -83 27 -32 64 -79 81 -105 18 -26 23 -36 11 -22 -12 14
-43 50 -70 81 -63 72 -90 118 -89 149 1 26 4 22 13 -20z m-655 -25 c15 -19 15
-19 -4 -5 -26 20 -35 32 -35 50 1 10 4 9 12 -5 6 -11 18 -29 27 -40z m-2319
10 c-5 -14 -17 -39 -26 -56 -11 -22 -15 -51 -13 -100 3 -60 1 -71 -20 -93 -14
-14 -28 -26 -33 -26 -4 0 -6 33 -3 73 11 142 15 155 49 192 40 42 60 46 46 10z
m2421 -77 c47 -64 69 -118 69 -170 l0 -48 -60 0 -60 0 -2 58 -1 57 -7 -60 c-6
-52 -7 -45 -8 50 -3 168 12 191 69 113z m-1715 -100 c117 -120 181 -203 297
-388 136 -218 167 -289 167 -391 0 -74 -24 -214 -55 -315 -14 -45 -25 -98 -25
-119 0 -23 -4 -34 -11 -30 -7 5 -9 64 -6 178 6 232 -4 325 -43 402 -36 71
-141 204 -259 327 -93 99 -92 88 -13 139 45 29 33 35 -18 9 -24 -12 -52 -19
-64 -16 -23 6 -216 197 -215 212 0 10 118 91 135 93 5 0 55 -45 110 -101z
m217 53 c32 -21 174 -173 217 -233 27 -37 29 -43 15 -58 -20 -23 -19 -29 15
-74 34 -45 41 -40 9 6 -19 26 -20 33 -9 54 17 30 24 30 38 -1 16 -34 15 -38
-4 -31 -10 4 -8 -4 9 -23 16 -19 33 -66 51 -138 15 -59 45 -152 67 -206 l39
-97 -14 -89 c-17 -103 -25 -137 -72 -287 -19 -61 -34 -119 -34 -128 0 -15 -5
-17 -31 -12 -17 3 -45 6 -62 6 l-30 0 6 50 c4 29 29 98 61 168 52 112 76 180
75 212 0 8 -10 -10 -21 -40 -12 -30 -30 -68 -40 -85 l-19 -30 8 40 c17 86 7
255 -22 375 -57 236 -173 505 -257 596 -43 47 -41 56 5 25z m-488 -17 c-31
-23 -133 -51 -210 -58 -66 -5 -65 -5 31 14 55 11 121 28 145 39 54 24 60 25
34 5z m2662 -76 c21 -27 42 -48 48 -48 7 0 7 -3 0 -8 -6 -4 -62 -64 -124 -134
-62 -71 -117 -128 -121 -128 -5 0 -19 15 -31 33 -12 17 -36 46 -52 64 l-30 32
-18 -22 c-35 -46 -207 -374 -224 -427 -14 -47 -16 -103 -15 -374 0 -176 -2
-318 -4 -315 -23 24 -120 497 -113 552 3 21 55 141 116 266 60 126 113 240
116 253 5 21 14 27 46 31 50 7 95 43 235 191 97 102 110 113 122 98 6 -9 29
-38 49 -64z m-2973 47 c-9 -14 -18 -25 -21 -25 -5 0 5 18 20 38 17 22 18 13 1
-13z m342 -40 c10 -8 14 -15 7 -15 -19 0 -43 11 -43 21 0 13 14 11 36 -6z
m3084 -5 c0 -6 -32 -10 -75 -10 -43 0 -75 4 -75 10 0 6 32 10 75 10 43 0 75
-4 75 -10z m710 -100 l0 -90 -145 0 -145 0 0 -40 c0 -33 -3 -40 -20 -40 -19 0
-20 7 -20 130 l0 130 165 0 165 0 0 -90z m-3673 -19 c33 -34 68 -61 77 -61 13
0 16 -5 11 -20 -5 -16 13 -42 84 -118 188 -203 264 -312 281 -401 5 -30 10
-106 11 -170 1 -64 4 -163 8 -220 l6 -103 -69 6 c-39 4 -77 13 -86 21 -13 12
-54 15 -212 15 l-196 0 26 68 c14 37 38 94 54 127 22 47 33 95 49 215 40 300
-1 521 -125 683 -36 48 -36 48 -8 33 16 -8 56 -42 89 -75z m-259 60 c39 -20
74 -54 111 -109 38 -55 19 -45 -26 13 -47 60 -105 95 -155 94 -31 0 -30 -1 14
-13 62 -17 106 -52 153 -123 47 -70 61 -86 51 -58 -16 42 -17 49 -2 24 34 -59
59 -191 60 -319 1 -159 -15 -254 -83 -490 -34 -116 -34 -120 -23 -120 4 0 16
30 26 67 23 86 42 133 55 133 23 0 20 -49 -7 -125 l-28 -80 -42 -3 -42 -3 0
52 c0 28 12 95 27 148 33 116 38 287 10 356 l-16 40 0 -110 c-1 -60 -6 -137
-11 -170 -16 -96 -41 -205 -49 -205 -3 0 -17 30 -29 68 -38 109 -85 217 -89
205 -6 -17 41 -188 71 -261 17 -44 23 -72 19 -100 l-5 -40 -62 -6 c-128 -14
-181 -44 -232 -132 -43 -73 -21 -71 47 5 69 78 116 111 129 91 5 -8 21 -8 61
4 50 14 387 36 547 36 61 0 62 0 51 -22 -11 -21 -9 -86 7 -239 6 -56 6 -56
-22 -61 -16 -3 -111 -28 -212 -56 -178 -50 -456 -116 -557 -132 -101 -17 -196
35 -231 125 -23 61 -15 246 20 449 14 83 26 179 26 215 1 120 27 272 74 423
97 310 125 369 203 419 56 34 107 38 161 10z m2295 -28 c-7 -60 -64 -219 -137
-386 -96 -218 -109 -267 -103 -372 10 -138 43 -303 87 -426 22 -62 40 -117 40
-122 0 -5 -9 -7 -20 -4 -26 7 -330 -37 -440 -64 -131 -31 -124 -31 -108 -12
18 23 88 52 161 68 40 9 51 14 32 14 -66 2 -173 -38 -209 -78 -11 -12 -23 -21
-28 -21 -17 0 -7 39 17 68 55 65 200 99 357 82 51 -5 98 -10 103 -11 6 0 1 -4
-10 -9 -17 -7 -16 -9 10 -10 26 -1 27 -3 10 -10 -18 -8 -18 -9 -2 -9 24 -1 33
26 15 47 -8 9 -32 82 -52 162 -21 80 -40 147 -43 150 -13 13 39 -222 64 -286
4 -12 1 -15 -13 -12 -13 2 -23 24 -39 88 -19 73 -67 250 -94 345 -7 23 -9 9
-10 -58 -1 -49 3 -86 7 -83 8 5 62 -164 62 -191 0 -8 -10 -9 -37 -1 -47 13
-103 5 -153 -21 l-40 -21 19 39 c20 39 59 71 86 71 19 0 19 -1 -5 60 -27 69
-25 129 10 283 17 73 46 203 64 290 38 171 55 211 104 242 17 11 65 42 107 68
50 32 94 71 128 113 29 35 55 64 59 64 4 0 5 -21 1 -47z m-1413 -49 c22 -20
51 -60 66 -91 23 -46 28 -71 31 -156 l3 -102 -24 85 c-41 145 -64 193 -123
264 -52 63 -54 67 -24 52 18 -10 50 -33 71 -52z m2010 32 c60 -19 70 -25 52
-30 -65 -21 -147 -235 -168 -439 l-7 -69 -30 6 c-16 3 -61 6 -99 6 l-70 0 44
53 c25 28 53 65 63 80 l18 28 -61 62 c-57 57 -60 63 -43 74 12 8 226 247 226
253 0 0 34 -11 75 -24z m-2639 -146 c44 -115 61 -307 40 -440 -4 -27 -7 21 -7
125 0 175 -8 230 -46 317 -15 34 -24 46 -31 39 -18 -18 -56 -12 -67 10 -12 22
-4 79 11 79 5 0 9 8 9 18 1 24 65 -82 91 -148z m1909 132 c0 -31 -35 -70 -87
-96 -24 -12 -33 -13 -33 -4 0 6 -7 3 -16 -8 -14 -17 -15 -17 -10 -1 3 10 6 45
6 78 l0 59 70 0 70 0 0 -28z m-150 8 c0 -5 -11 -10 -25 -10 -14 0 -25 5 -25
10 0 6 11 10 25 10 14 0 25 -4 25 -10z m-2476 -66 c-20 -40 -23 -59 -21 -138
2 -85 4 -94 35 -138 52 -75 50 -77 -85 -80 -82 -2 -118 -7 -121 -15 -3 -10 25
-13 117 -13 101 0 121 -2 121 -15 0 -12 -20 -15 -120 -15 -73 0 -120 -4 -120
-10 0 -6 45 -10 115 -10 70 0 115 -4 115 -10 0 -6 -41 -10 -102 -10 -57 0
-110 -5 -118 -10 -10 -7 21 -10 98 -10 93 0 112 -3 112 -15 0 -12 -18 -15
-106 -15 -104 0 -105 0 -102 -22 3 -22 8 -23 101 -26 140 -4 122 -22 -23 -22
l-120 0 0 158 0 157 95 -3 95 -3 0 106 c0 102 11 156 41 192 19 22 17 15 -7
-33z m3494 35 c76 -17 80 -20 54 -30 -13 -5 -29 -6 -34 -2 -7 4 -8 1 -3 -7 5
-9 2 -10 -13 -6 -15 5 -28 -4 -59 -41 -47 -57 -97 -130 -107 -158 -7 -17 -46
-299 -46 -332 0 -7 -7 -13 -16 -13 -15 0 -16 13 -11 113 10 202 69 391 142
456 41 36 33 34 93 20z m152 -39 c0 -11 -2 -20 -3 -20 -2 0 -12 9 -22 20 -18
19 -17 20 3 20 15 0 22 -6 22 -20z m50 -32 c-1 -51 -1 -52 -15 -28 -19 34 -19
80 0 80 11 0 15 -12 15 -52z m60 -88 c0 -75 3 -179 7 -230 4 -62 3 -91 -4 -87
-5 4 -13 48 -17 99 -10 120 -22 349 -18 352 1 2 9 3 17 3 13 0 15 -22 15 -137z
m55 -129 c4 -202 3 -252 -7 -249 -10 4 -14 65 -16 264 -2 179 1 255 8 248 7
-7 12 -108 15 -263z m145 -21 c0 -187 -4 -290 -10 -290 -6 0 -10 103 -10 290
0 187 4 290 10 290 6 0 10 -103 10 -290z m-2850 270 c0 -5 -10 -10 -22 -9 -22
0 -22 1 -3 9 11 5 21 9 23 9 1 1 2 -3 2 -9z m2758 -252 c-2 -198 -6 -262 -15
-266 -10 -3 -13 54 -13 262 0 231 2 266 15 266 13 0 15 -33 13 -262z m52 -19
c0 -220 -3 -280 -12 -277 -10 4 -14 71 -16 281 -2 242 0 277 13 277 13 0 15
-37 15 -281z m-296 241 c42 -38 70 -96 85 -180 16 -92 52 -662 54 -865 2 -157
0 -173 -20 -210 -51 -95 -88 -112 -431 -195 -136 -33 -301 -74 -366 -91 -66
-16 -124 -28 -131 -25 -7 2 -14 34 -18 73 -4 54 -35 175 -64 248 -3 9 31 14
119 19 158 9 221 19 398 63 80 20 153 36 162 35 10 0 41 -12 69 -27 29 -14 54
-23 57 -21 5 5 -58 46 -70 46 -5 0 -8 4 -8 9 0 12 67 24 84 14 8 -4 37 -36 65
-71 57 -71 71 -60 16 12 -19 25 -32 46 -27 46 11 0 75 -40 100 -63 24 -23 28
-17 10 16 -21 41 -69 67 -161 87 -46 11 -62 10 -101 -3 l-46 -16 -6 26 c-11
41 16 78 111 156 70 56 91 79 93 101 5 38 -13 56 -22 22 -4 -17 -39 -51 -98
-96 -101 -79 -108 -78 -108 4 0 44 2 47 17 35 15 -13 16 -11 10 18 -9 43 27
180 92 358 28 77 54 160 57 185 l5 45 -20 -55 c-10 -30 -40 -109 -65 -175 -26
-66 -55 -151 -65 -190 l-18 -70 -7 148 c-5 81 -6 184 -3 230 l6 82 -14 -54
c-7 -29 -17 -127 -20 -217 l-8 -164 -19 40 c-19 37 -19 48 -9 157 14 145 36
278 56 334 20 55 70 134 102 159 13 10 23 22 23 25 -1 4 2 10 6 13 4 4 4 1 0
-5 -9 -16 -10 -16 39 2 53 19 49 19 89 -15z m796 -10 c0 -6 -55 -10 -145 -10
-90 0 -145 4 -145 10 0 6 55 10 145 10 90 0 145 -4 145 -10z m-1447 -46 c20
-25 34 -51 31 -57 -2 -7 25 -41 61 -77 36 -35 65 -69 65 -74 0 -5 -35 -51 -77
-103 -143 -172 -154 -188 -194 -268 -21 -44 -46 -111 -53 -150 -17 -84 -31
-377 -17 -356 5 8 12 71 15 140 4 69 11 155 17 191 12 76 61 186 121 271 l43
61 117 -4 c65 -2 121 -7 125 -11 4 -4 1 -51 -5 -105 -7 -53 -12 -197 -12 -319
l0 -222 -52 -15 c-62 -17 -162 -36 -194 -36 -22 0 -22 0 -16 145 3 97 1 145
-5 145 -7 0 -12 -54 -15 -144 -2 -80 -5 -147 -8 -149 -3 -3 -54 -7 -115 -9
l-110 -3 -3 339 c-2 278 1 350 13 400 20 78 210 456 229 456 2 0 19 -21 39
-46z m1247 -99 c0 -70 -4 -115 -10 -115 -6 0 -10 42 -10 105 l0 105 -36 0
c-21 0 -33 4 -29 10 3 6 24 10 46 10 l39 0 0 -115z m80 0 c0 -96 -3 -115 -15
-115 -12 0 -15 19 -15 108 0 60 3 112 7 115 18 19 23 -3 23 -108z m120 98 c0
-9 -17 -13 -50 -13 -53 0 -69 16 -22 22 48 7 72 3 72 -9z m-2395 -298 c0 -268
-1 -290 -17 -293 -17 -3 -18 14 -18 257 0 202 -3 261 -12 261 -10 0 -13 -25
-13 -92 0 -323 -5 -428 -20 -428 -13 0 -15 36 -15 260 0 201 -3 260 -12 260
-10 0 -12 -57 -10 -260 2 -174 -1 -260 -8 -260 -7 0 -10 88 -10 260 0 224 -2
260 -15 260 -13 0 -15 -38 -15 -285 0 -183 -4 -285 -10 -285 -6 0 -10 102 -10
285 0 226 -3 285 -13 285 -10 0 -12 -53 -9 -264 2 -144 0 -275 -4 -290 -18
-72 -24 -3 -24 264 0 256 -2 290 -16 290 -13 0 -15 -27 -13 -222 3 -291 1
-358 -11 -358 -6 0 -10 103 -10 290 0 178 -4 290 -10 290 -5 0 -10 -114 -12
-289 -2 -159 -6 -292 -10 -296 -24 -24 -28 22 -28 331 l0 324 173 -2 172 -3 0
-290z m-2075 241 c0 -24 3 -51 6 -60 5 -14 -5 -16 -70 -16 l-76 0 0 60 0 60
70 0 70 0 0 -44z m135 7 c-4 -10 -13 -49 -20 -88 -10 -51 -13 -60 -14 -34 -1
36 25 139 35 139 4 0 3 -8 -1 -17z m4335 2 c0 -11 -12 -15 -50 -15 -38 0 -50
4 -50 15 0 11 12 15 50 15 38 0 50 -4 50 -15z m-4933 -70 c1 -29 -2 -35 -18
-35 -15 0 -19 7 -19 35 0 27 4 35 18 35 12 0 17 -9 19 -35z m4933 20 c0 -11
-12 -15 -50 -15 -38 0 -50 4 -50 15 0 11 12 15 50 15 38 0 50 -4 50 -15z
m-4899 -35 c5 0 9 -4 9 -10 0 -5 -7 -10 -15 -10 -11 0 -15 10 -14 33 1 23 3
26 6 10 2 -13 9 -23 14 -23z m26 -12 c-2 -13 -4 -5 -4 17 -1 22 1 32 4 23 2
-10 2 -28 0 -40z m2793 -108 c-32 -156 -35 -157 -16 -8 12 91 31 158 41 146 1
-1 -10 -64 -25 -138z m-15 113 c-4 -10 -13 -67 -19 -128 -8 -75 -14 -102 -19
-85 -9 32 -9 214 0 223 3 4 15 7 26 7 14 0 17 -4 12 -17z m2095 -8 c0 -11 -12
-15 -50 -15 -38 0 -50 4 -50 15 0 11 12 15 50 15 38 0 50 -4 50 -15z m0 -50
c0 -11 -12 -15 -50 -15 -64 0 -66 18 -2 23 26 2 48 4 50 5 1 1 2 -5 2 -13z
m-2270 -75 c0 -29 -1 -30 -50 -30 -46 0 -50 2 -50 24 0 26 13 33 68 35 29 1
32 -2 32 -29z m-602 -85 c0 -43 -29 -49 -46 -10 -18 38 -15 45 17 45 26 0 29
-3 29 -35z m722 -82 c0 -92 -7 -113 -35 -113 -32 0 -56 10 -49 21 3 5 14 9 25
9 11 0 17 5 14 10 -3 6 -17 10 -31 10 -13 0 -24 5 -24 10 0 6 14 10 30 10 17
0 30 5 30 10 0 6 -13 10 -30 10 -20 0 -30 5 -30 15 0 10 10 15 30 15 17 0 30
5 30 10 0 6 -13 10 -30 10 -23 0 -30 4 -30 20 0 17 7 20 50 20 l50 0 0 -67z
m1860 -23 c0 -83 -1 -90 -20 -90 -19 0 -20 7 -20 90 0 83 1 90 20 90 19 0 20
-7 20 -90z m50 -5 c0 -78 -3 -95 -15 -95 -12 0 -15 17 -15 95 0 78 3 95 15 95
12 0 15 -17 15 -95z m-972 79 c52 -14 15 -23 -92 -21 -90 2 -112 5 -104 15 11
13 153 17 196 6z m-2458 -114 c16 -11 8 -13 -29 -10 -20 1 -23 -2 -18 -19 3
-14 0 -21 -9 -21 -8 0 -14 10 -14 24 0 18 7 26 23 29 12 2 24 5 27 5 3 1 12
-3 20 -8z m766 -97 c-4 -58 -11 -113 -17 -122 -7 -12 -9 0 -5 39 3 30 9 85 12
123 11 106 18 78 10 -40z m2384 47 c0 -19 7 -20 114 -20 l114 0 5 -26 c2 -14
2 -35 0 -45 -5 -18 -15 -19 -182 -17 l-176 3 -3 63 -3 62 66 0 c58 0 65 -2 65
-20z m-3163 -32 c-3 -7 -5 -2 -5 12 0 14 2 19 5 13 2 -7 2 -19 0 -25z m-727
-3 c0 -13 -17 -15 -117 -13 -82 2 -118 7 -121 16 -3 9 25 12 117 12 102 0 121
-2 121 -15z m4258 -18 c6 -5 12 -20 12 -33 0 -23 -3 -24 -65 -24 l-65 0 0 40
0 39 53 -6 c28 -3 58 -10 65 -16z m-3541 -29 c-3 -8 -6 -5 -6 6 -1 11 2 17 5
13 3 -3 4 -12 1 -19z m913 -12 c0 -21 -6 -36 -16 -40 -8 -3 -12 -10 -9 -16 3
-5 2 -10 -4 -10 -14 0 -19 11 -27 58 -7 42 -6 42 25 42 29 0 31 -3 31 -34z
m-1640 15 c0 -13 -53 -21 -141 -21 -64 0 -79 3 -79 15 0 12 19 15 110 15 61 0
110 -4 110 -9z m4307 -13 c-3 -8 -6 -5 -6 6 -1 11 2 17 5 13 3 -3 4 -12 1 -19z
m-2117 -149 c0 -90 -4 -169 -10 -179 -6 -11 -44 -45 -86 -75 -41 -31 -77 -62
-80 -69 -4 -9 -21 2 -54 35 -26 26 -60 51 -74 55 -19 4 -26 13 -26 30 0 24 2
24 90 24 53 0 90 4 90 10 0 6 -37 10 -90 10 -83 0 -90 1 -90 20 0 19 7 20 90
20 73 0 90 3 90 15 0 12 -18 15 -100 15 l-100 0 0 -66 c0 -48 -3 -65 -12 -62
-8 3 -14 29 -16 71 -4 86 -22 88 -22 2 0 -55 -3 -65 -17 -65 -16 0 -18 8 -15
60 3 50 1 60 -12 60 -13 0 -16 -12 -16 -64 l0 -65 48 -6 c64 -10 130 -40 170
-78 36 -34 67 -85 58 -95 -3 -3 0 -12 6 -21 7 -9 -2 -3 -20 13 -18 17 -32 27
-32 23 0 -3 -28 4 -62 17 -62 23 -157 46 -268 66 -50 8 -46 9 40 6 97 -4 174
-24 255 -67 l40 -21 -30 25 c-52 45 -163 79 -283 87 -59 4 -89 8 -67 9 41 3
40 5 -9 16 -28 6 -29 7 -23 62 3 30 8 57 11 60 2 2 15 -3 29 -12 23 -14 25
-14 31 0 3 9 6 63 6 121 l0 103 138 3 137 3 0 33 0 32 142 0 143 0 0 -161z
m1103 139 c-4 -7 -11 -56 -14 -108 l-5 -95 -2 108 c-2 91 0 107 14 107 10 0
12 -4 7 -12z m-3365 -30 c-3 -9 -30 -14 -76 -16 -60 -2 -72 0 -72 13 0 12 14
15 76 15 56 0 75 -3 72 -12z m4190 -225 l2 -233 -37 1 c-21 0 -32 3 -25 6 17
7 15 33 -3 33 -8 0 -15 -9 -15 -20 0 -32 -30 -24 -31 8 l-2 27 -4 -27 c-6 -37
-23 -36 -23 1 0 34 -23 41 -126 41 -45 0 -64 4 -64 13 0 9 19 11 70 9 59 -3
70 -1 70 12 0 13 -13 16 -70 16 -56 0 -70 3 -70 15 0 12 14 15 70 15 40 0 70
4 70 10 0 6 -30 10 -70 10 -56 0 -70 3 -70 15 0 12 19 15 115 15 96 0 115 3
115 15 0 12 -19 15 -115 15 -96 0 -115 3 -115 15 0 13 22 15 140 15 87 0 140
4 140 10 0 6 -53 10 -140 10 -118 0 -140 2 -140 15 0 12 19 15 110 15 67 0
110 4 110 10 0 9 -132 16 -197 10 -17 -1 -23 4 -23 18 0 19 7 20 112 18 81 -1
112 2 115 12 4 9 -24 12 -116 12 -101 0 -121 2 -121 15 0 13 24 15 152 15 110
0 149 3 141 11 -7 7 -58 10 -152 7 -106 -2 -141 0 -141 9 0 12 108 20 265 19
l70 -1 3 -232z m-4142 211 c-9 -8 -16 -20 -16 -26 0 -6 -3 -9 -6 -6 -8 9 14
48 27 48 6 0 3 -7 -5 -16z m4244 -29 c0 -14 -6 -25 -12 -26 -10 0 -10 -2 0 -6
17 -7 15 -43 -3 -43 -11 0 -15 12 -15 50 0 38 4 50 15 50 9 0 15 -9 15 -25z
m50 -25 c0 -38 -4 -50 -15 -50 -11 0 -15 11 -15 43 0 24 3 47 7 50 16 17 23 3
23 -43z m40 -25 c0 -41 -4 -75 -9 -75 -5 0 -9 34 -10 75 -1 45 3 75 9 75 6 0
10 -31 10 -75z m-140 45 c0 -11 -4 -20 -10 -20 -5 0 -10 9 -10 20 0 11 5 20
10 20 6 0 10 -9 10 -20z m-4253 -5 c0 -12 -15 -15 -69 -15 -54 0 -68 3 -68 15
0 12 14 15 68 15 54 0 69 -3 69 -15z m30 -52 c-3 -10 -5 -4 -5 12 0 17 2 24 5
18 2 -7 2 -21 0 -30z m4219 -10 c-11 -11 -19 6 -11 24 8 17 8 17 12 0 3 -10 2
-21 -1 -24z m-4246 11 c0 -11 -18 -14 -70 -14 -56 0 -70 3 -70 15 0 13 13 15
70 14 51 -1 70 -5 70 -15z m1546 -101 c-8 -87 -11 -94 -32 -86 -17 6 -16 13
12 111 8 28 17 52 21 52 3 0 3 -35 -1 -77z m2759 35 c10 -65 3 -123 -15 -123
-12 0 -16 17 -18 83 -2 67 0 82 12 82 10 0 17 -15 21 -42z m45 -2 c0 -25 -4
-48 -10 -51 -6 -4 -10 6 -10 22 0 15 -3 38 -6 51 -5 16 -2 22 10 22 12 0 16
-10 16 -44z m-4350 9 c0 -12 -14 -15 -70 -15 -56 0 -70 3 -70 15 0 12 14 15
70 15 56 0 70 -3 70 -15z m4250 0 c0 -8 -4 -15 -10 -15 -5 0 -10 7 -10 15 0 8
5 15 10 15 6 0 10 -7 10 -15z m139 -65 c-1 -27 -6 -50 -10 -50 -5 0 -9 23 -9
50 0 28 4 50 10 50 5 0 9 -22 9 -50z m-4389 15 c0 -12 -14 -15 -70 -15 -56 0
-70 3 -70 15 0 12 14 15 70 15 56 0 70 -3 70 -15z m4250 0 c0 -8 -4 -15 -10
-15 -5 0 -10 7 -10 15 0 8 5 15 10 15 6 0 10 -7 10 -15z m-4237 -49 c5 -12 -9
-15 -70 -18 -73 -3 -90 2 -78 22 10 16 142 13 148 -4z m4237 -6 c0 -11 -4 -20
-10 -20 -5 0 -10 9 -10 20 0 11 5 20 10 20 6 0 10 -9 10 -20z m-3106 -45 c-7
-19 -14 -58 -14 -87 -1 -37 -3 -48 -10 -37 -12 20 -31 139 -24 150 3 5 18 9
34 9 l29 0 -15 -35z m258 19 c95 -6 94 -6 261 -125 48 -34 97 -97 97 -124 0
-11 -28 -4 -41 11 -25 30 -218 183 -212 169 3 -8 40 -44 83 -80 62 -51 77 -68
73 -85 -7 -28 -19 -25 -77 19 -87 66 -117 78 -58 25 29 -27 52 -52 52 -56 0
-16 -35 -7 -87 22 -46 26 -54 28 -51 13 3 -16 -4 -18 -52 -17 -70 1 -117 17
-170 55 -56 41 -75 83 -61 136 15 56 2 54 243 37z m-1382 -26 c0 -9 -22 -13
-77 -13 -52 0 -78 4 -80 13 -4 9 16 12 76 12 58 0 81 -4 81 -12z m2405 -10
c25 -12 45 -25 45 -30 0 -4 -36 -6 -81 -5 -89 2 -115 15 -77 41 31 22 59 20
113 -6z m1825 -3 c0 -8 -4 -15 -10 -15 -5 0 -10 7 -10 15 0 8 5 15 10 15 6 0
10 -7 10 -15z m50 -35 c0 -38 -4 -50 -15 -50 -11 0 -15 12 -15 50 0 38 4 50
15 50 11 0 15 -12 15 -50z m50 35 c0 -8 -4 -15 -10 -15 -5 0 -10 7 -10 15 0 8
5 15 10 15 6 0 10 -7 10 -15z m48 -14 c3 -8 -1 -12 -9 -9 -7 2 -15 10 -17 17
-3 8 1 12 9 9 7 -2 15 -10 17 -17z m-4378 -21 c0 -24 -150 -26 -158 -2 -3 9
17 12 77 12 46 0 81 -4 81 -10z m-490 -15 c0 -11 -12 -15 -50 -15 -38 0 -50 4
-50 15 0 11 12 15 50 15 38 0 50 -4 50 -15z m4717 -25 c0 -22 -4 -40 -8 -40
-5 0 -9 18 -9 40 0 22 4 40 9 40 4 0 8 -18 8 -40z m-4347 -8 l-25 -5 25 -7
c14 -3 44 0 68 8 24 8 45 12 47 10 3 -2 -2 -103 -10 -224 -8 -120 -19 -316
-24 -433 -6 -118 -15 -219 -19 -223 -13 -13 -22 185 -22 492 0 162 -4 291 -11
313 -9 33 -14 38 -36 35 -14 -2 -35 -16 -47 -31 -20 -27 -21 -41 -21 -212 0
-105 -4 -180 -9 -175 -9 9 -9 331 1 358 15 42 67 102 87 101 17 -1 17 -3 -4
-7z m-370 -17 c0 -11 -12 -15 -45 -15 -25 0 -48 0 -52 -1 -5 0 -9 7 -11 15 -3
13 7 16 52 16 43 0 56 -3 56 -15z m2315 -34 c98 -24 195 -59 215 -77 21 -20 4
-18 -112 16 -57 16 -126 34 -155 40 -57 13 -93 40 -52 40 13 0 60 -9 104 -19z
m914 -16 c29 -15 40 -35 65 -124 24 -82 22 -88 -25 -96 -23 -4 -57 -14 -75
-21 -19 -8 -36 -14 -39 -14 -3 0 -12 -3 -21 -7 -25 -9 -105 4 -159 26 l-50 21
65 -5 c85 -8 60 9 -40 25 -41 7 -88 18 -105 25 -27 12 -14 13 110 14 94 1 135
4 125 11 -8 5 -33 10 -56 10 -46 0 -88 23 -61 33 8 3 52 11 96 18 90 13 107
34 27 34 -45 0 -70 16 -63 40 8 23 166 31 206 10z m-3229 -4 c0 -15 -46 -18
-66 -4 -16 12 -13 13 24 13 23 0 42 -4 42 -9z m4336 -32 c-21 -129 -119 -190
-326 -204 l-85 -5 142 49 c78 27 155 57 173 67 32 20 73 74 85 112 11 37 18
25 11 -19z m-1327 -20 c-6 -4 -35 -10 -63 -13 -59 -8 -221 -48 -286 -71 -25
-9 -56 -13 -72 -10 -41 9 -42 21 -2 17 20 -3 68 7 117 22 45 15 134 38 197 52
74 16 96 23 60 19 -30 -2 -109 -18 -175 -34 -78 -19 -124 -26 -131 -20 -8 7
-11 4 -10 -8 1 -16 -6 -18 -49 -15 -59 5 -62 7 -45 27 8 10 28 14 59 13 25 -1
100 11 166 25 66 15 145 30 175 35 49 7 56 6 63 -12 5 -12 3 -22 -4 -27z
m-641 10 c70 -18 132 -36 137 -41 11 -11 12 -11 -152 28 -62 14 -115 30 -119
35 -7 13 -9 13 134 -22z m-2368 -14 c0 -8 -9 -15 -20 -15 -11 0 -20 7 -20 15
0 8 9 15 20 15 11 0 20 -7 20 -15z m1784 -51 c18 -17 21 -44 6 -44 -6 0 -22 7
-35 16 -20 13 -28 14 -40 4 -8 -7 -15 -21 -15 -30 0 -20 -15 -24 -112 -35
l-58 -6 0 41 c0 47 0 47 95 59 109 13 142 13 159 -5z m-1794 -14 c0 -11 -7
-20 -15 -20 -27 0 -18 30 13 39 1 1 2 -8 2 -19z m4334 -49 c-4 -21 -10 -28
-14 -20 -5 7 -3 23 3 36 14 31 19 24 11 -16z m-4094 19 c0 -5 -4 -10 -10 -10
-5 0 -10 5 -10 10 0 6 5 10 10 10 6 0 10 -4 10 -10z m1696 -60 c7 -30 33 -107
58 -170 60 -154 89 -258 126 -452 l32 -163 -49 -42 c-26 -23 -49 -41 -50 -40
-1 1 -13 85 -28 187 -31 221 -52 328 -111 559 -24 96 -44 176 -44 178 0 3 12
3 27 1 23 -3 28 -10 39 -58z m-496 25 c0 -14 -4 -25 -10 -25 -5 0 -10 11 -10
25 0 14 5 25 10 25 6 0 10 -11 10 -25z m1378 6 c15 -10 52 -31 82 -47 52 -26
54 -28 28 -33 -18 -4 -43 -27 -76 -71 -27 -36 -60 -74 -72 -85 l-23 -20 7 20
c26 71 28 162 4 208 -11 21 -4 47 13 47 6 0 23 -8 37 -19z m-2810 -3 c-3 -7
-13 -13 -23 -13 -10 0 -20 6 -22 13 -3 7 5 12 22 12 17 0 25 -5 23 -12z m2470
-118 c36 -58 39 -70 17 -70 -19 0 -60 53 -89 117 -45 97 1 67 72 -47z m225 52
c31 -78 16 -112 -47 -112 -13 0 -26 -5 -28 -11 -2 -5 -21 -13 -43 -16 l-40 -5
-37 76 c-43 87 -43 86 -24 86 8 0 31 -22 51 -50 46 -63 64 -65 25 -3 -35 55
-36 63 -11 63 11 0 34 -23 60 -62 26 -38 41 -54 41 -42 0 11 -11 36 -25 56
-14 20 -25 41 -25 46 0 10 72 31 81 23 3 -3 13 -25 22 -49z m-363 27 c0 -5 4
-7 10 -4 10 6 73 -85 65 -94 -3 -2 -26 15 -50 39 -43 42 -57 70 -35 70 6 0 10
-5 10 -11z m-1160 -49 c0 -59 -5 -57 140 -35 52 8 98 15 101 15 3 0 0 -48 -7
-107 -7 -60 -17 -170 -23 -246 -7 -89 -16 -145 -26 -160 -8 -13 -16 -39 -17
-58 l-3 -36 -95 4 c-109 4 -281 20 -316 29 -22 6 -24 12 -26 73 -1 49 -2 55
-5 21 -6 -88 -7 -88 -60 -79 -27 4 -69 5 -95 2 -30 -4 -48 -2 -48 5 0 5 27
117 59 249 33 131 62 252 66 269 6 29 10 32 53 37 26 3 49 4 50 2 9 -9 -64
-386 -85 -441 -4 -12 -3 -15 5 -10 19 12 61 163 86 314 13 79 26 145 28 147 3
3 191 51 211 54 4 1 7 -21 7 -49z m674 -65 c8 -49 27 -202 41 -340 14 -137 41
-382 60 -544 22 -183 32 -298 26 -304 -11 -11 -288 -53 -296 -46 -3 3 -19 63
-37 132 -17 70 -33 126 -35 124 -4 -5 35 -201 48 -233 5 -15 8 -28 7 -29 -7
-6 -151 -25 -156 -21 -2 3 4 114 14 248 24 329 24 360 -1 388 -11 12 -30 26
-42 31 -27 10 -29 29 -8 70 12 21 13 34 5 49 -9 17 9 272 36 502 l7 56 97 12
c54 7 106 9 116 6 11 -3 35 -2 54 3 22 5 37 3 41 -3 4 -6 14 -51 23 -101z
m306 85 l0 -29 73 -3 72 -3 3 -83 3 -83 -58 3 c-57 3 -58 3 -58 33 0 27 3 30
38 33 37 3 44 13 31 46 -7 19 -40 21 -76 4 -26 -13 -26 -14 -33 -160 -7 -130
-10 -148 -25 -148 -15 0 -17 17 -19 174 -3 202 3 246 30 246 14 0 19 -7 19
-30z m2092 1 c6 -18 5 -22 -6 -18 -8 3 -16 2 -18 -3 -2 -5 -19 -11 -38 -12
-25 -2 -35 1 -38 14 -5 23 38 36 50 14 13 -22 30 -9 22 16 -9 29 17 19 28 -11z
m-4242 -6 c0 -9 -9 -15 -21 -15 -18 0 -19 2 -9 15 7 8 16 15 21 15 5 0 9 -7 9
-15z m3027 -11 c-3 -3 -12 -4 -19 -1 -8 3 -5 6 6 6 11 1 17 -2 13 -5z m1075
-121 c2 -65 3 -119 2 -121 -1 -2 -18 46 -39 107 -20 61 -34 115 -30 121 3 5
19 10 35 10 l28 0 4 -117z m-821 -5 c29 -25 57 -23 274 17 105 19 193 35 196
35 4 0 12 -21 18 -47 7 -27 27 -102 46 -168 70 -244 101 -455 121 -825 5 -86
10 -124 14 -104 18 85 -36 707 -76 882 l-6 27 30 -30 c24 -25 35 -52 62 -160
17 -71 41 -161 52 -200 24 -85 118 -290 164 -359 22 -33 39 -77 49 -124 23
-112 25 -109 -57 -146 -98 -44 -217 -83 -311 -101 -93 -18 -341 -20 -433 -4
-59 10 -62 12 -68 42 -13 70 -86 833 -96 997 -14 249 -19 310 -25 350 -3 24 0
19 10 -15 8 -27 24 -58 36 -67z m764 -10 c21 -62 38 -115 38 -117 -1 -2 -19
-12 -41 -21 l-39 -18 -35 127 c-32 112 -34 127 -19 133 48 20 54 12 96 -104z
m-3728 25 c-2 -16 -4 -3 -4 27 0 30 2 43 4 28 2 -16 2 -40 0 -55z m2652 39
c-10 -29 -15 -32 -52 -32 -31 0 -38 3 -29 12 12 12 85 56 90 53 1 -1 -3 -16
-9 -33z m1289 19 c3 -8 -1 -12 -9 -9 -7 2 -15 10 -17 17 -3 8 1 12 9 9 7 -2
15 -10 17 -17z m-1897 -171 c1 -140 1 -145 -20 -148 -21 -3 -21 -1 -21 165 0
166 0 167 20 148 17 -18 19 -36 21 -165z m1264 172 c-13 -12 -255 -65 -262
-59 -3 3 12 10 33 16 159 42 192 49 214 50 13 1 20 -3 15 -7z m319 -122 c20
-72 36 -137 36 -145 0 -9 -10 -15 -24 -15 -18 0 -27 9 -39 38 -26 64 -69 231
-62 242 3 6 17 10 29 10 21 0 26 -12 60 -130z m-1864 61 c-12 -24 -70 -30 -70
-8 0 12 29 36 60 48 19 8 25 -14 10 -40z m425 -31 c19 -20 19 -20 -21 -20 -39
0 -66 17 -87 57 -11 18 85 -15 108 -37z m1785 9 c12 -22 20 -45 18 -51 -2 -6
-14 12 -25 40 -26 62 -22 68 7 11z m-1340 -5 c0 -12 -10 -14 -47 -12 -66 4
-70 28 -4 28 39 0 51 -4 51 -16z m-2660 -15 c0 -11 4 -28 9 -37 4 -9 11 -30
15 -46 6 -26 5 -28 -8 -17 -8 7 -20 10 -25 7 -12 -8 -41 44 -41 73 0 18 23 40
43 41 4 0 7 -9 7 -21z m2386 -35 c52 29 58 18 11 -18 -44 -34 -60 -33 -91 5
-37 44 -32 67 5 24 l31 -35 44 24z m118 12 c-16 -14 -35 -26 -43 -26 -8 0 4
13 25 29 47 34 58 32 18 -3z m-1324 7 c0 -10 -7 -81 -15 -158 -8 -77 -15 -150
-15 -162 0 -17 -6 -23 -21 -23 -21 0 -22 2 -15 93 17 215 22 248 36 257 22 14
30 12 30 -7z m620 2 c0 -10 -10 -15 -29 -15 -16 0 -31 6 -35 15 -4 12 3 15 29
15 24 0 35 -5 35 -15z m-1750 -41 c0 -19 -4 -34 -10 -34 -5 0 -10 18 -10 41 0
24 4 38 10 34 6 -3 10 -22 10 -41z m27 -96 c-2 -29 -3 -8 -3 47 0 55 1 79 3
53 2 -26 2 -71 0 -100z m2167 116 c3 -9 6 -60 6 -115 0 -59 4 -99 10 -99 6 0
10 37 10 91 0 80 2 90 15 79 11 -9 15 -33 15 -86 0 -43 4 -74 10 -74 6 0 10
27 10 60 0 33 4 60 10 60 6 0 10 -16 10 -35 0 -19 5 -35 10 -35 6 0 10 15 10
33 l1 32 19 -24 c23 -27 29 -129 8 -136 -7 -2 -134 -9 -282 -15 -278 -11 -285
-10 -286 28 0 9 25 12 93 12 52 0 142 3 200 7 l107 6 0 114 c0 103 8 138 24
97z m401 -6 c4 -4 -36 -222 -42 -228 -2 -3 -45 -7 -94 -8 l-89 -4 0 41 0 41
80 0 c50 0 80 4 80 11 0 7 -28 9 -80 7 l-80 -3 0 26 c0 14 7 34 15 45 14 19
14 18 15 -3 0 -22 4 -23 71 -23 64 0 70 2 58 16 -7 9 -23 20 -36 25 -24 9 -32
46 -13 65 9 9 105 2 115 -8z m-465 -8 c0 -11 -4 -20 -10 -20 -5 0 -10 9 -10
20 0 11 5 20 10 20 6 0 10 -9 10 -20z m-2313 -10 c3 -11 12 -20 19 -20 16 0
19 -16 4 -25 -6 -4 -8 -10 -5 -15 3 -5 1 -11 -5 -15 -12 -8 -13 -45 -1 -45 15
0 21 -30 11 -51 -13 -22 -43 -25 -60 -5 -6 8 -17 13 -23 11 -27 -10 -60 38
-50 73 3 13 1 22 -6 22 -6 0 -11 6 -11 13 0 19 37 51 44 39 8 -13 -18 -34 -29
-24 -5 4 -5 2 -2 -5 4 -6 16 -9 28 -6 17 5 20 11 15 33 -6 34 -1 40 37 40 20
0 30 -6 34 -20z m2143 5 c0 -8 -9 -15 -20 -15 -20 0 -26 11 -13 23 12 13 33 7
33 -8z m2171 -8 c58 -39 50 -50 -53 -76 -51 -13 -134 -38 -184 -55 l-92 -32
-26 23 c-14 12 -42 25 -61 29 -41 7 -45 20 -11 35 41 19 329 97 362 98 17 0
46 -9 65 -22z m-4236 -25 c-8 -9 -35 20 -28 31 4 6 11 3 19 -8 8 -10 12 -21 9
-23z m1849 -6 c-8 -33 -20 -33 -28 1 -5 17 -3 29 6 34 19 12 30 -5 22 -35z
m2731 33 c4 -5 17 -14 29 -19 13 -5 22 -17 23 -31 0 -13 -1 -18 -4 -11 -3 6
-9 10 -14 7 -5 -3 -3 -15 4 -26 10 -16 9 -21 -3 -29 -9 -6 -18 -6 -24 0 -20
20 -24 9 -19 -47 3 -32 3 -56 0 -53 -2 3 -7 24 -10 48 -3 32 -14 53 -38 78
l-33 34 29 30 c30 31 49 37 60 19z m-4595 -54 c0 -8 5 -15 10 -15 6 0 10 8 10
18 1 16 2 15 11 -2 16 -27 -4 -66 -34 -66 -33 0 -40 10 -21 31 9 10 14 25 11
34 -4 8 -2 15 3 15 6 0 10 -7 10 -15z m2480 -7 c0 -16 -3 -19 -11 -11 -6 6 -8
16 -5 22 11 17 16 13 16 -11z m-2395 1 c4 -6 13 -8 21 -5 9 3 14 -2 14 -14 0
-24 -8 -25 -38 -4 -33 23 -27 0 8 -29 29 -25 30 -28 30 -116 0 -74 -3 -91 -15
-91 -9 0 -15 9 -16 23 -2 116 -9 171 -23 192 -9 13 -13 31 -10 39 7 18 20 21
29 5z m4449 -38 c15 -27 14 -29 -4 -24 -25 7 -44 29 -35 43 11 17 24 11 39
-19z m-2665 -8 c0 -25 -1 -26 -9 -8 -12 27 -12 35 0 35 6 0 10 -12 9 -27z
m2451 7 c18 -33 48 -138 85 -298 42 -182 51 -252 37 -278 -11 -20 -81 -56
-252 -128 l-105 -44 -3 26 c-6 59 -45 247 -89 429 -39 161 -44 194 -33 207 16
20 280 103 332 105 10 1 22 -8 28 -19z m-4557 -13 c-33 -10 -68 -3 -59 11 2 4
24 6 48 3 l43 -4 -32 -10z m2257 -7 c0 -28 -2 -30 -40 -30 -38 0 -40 2 -40 30
0 28 2 30 40 30 38 0 40 -2 40 -30z m1856 -36 c18 -10 31 -52 73 -221 59 -243
91 -393 91 -434 0 -34 -19 -45 -48 -30 -28 15 -134 227 -170 341 -28 87 -87
321 -87 345 0 25 101 24 141 -1z m764 -24 c0 -20 -5 -30 -15 -30 -10 0 -15 10
-15 30 0 20 5 30 15 30 10 0 15 -10 15 -30z m78 3 c3 -19 -1 -23 -22 -23 -21
0 -26 5 -26 26 0 21 4 25 23 22 14 -2 23 -11 25 -25z m-2048 -83 c0 -14 -7
-20 -22 -20 -13 0 -167 -7 -343 -15 -416 -19 -395 -19 -395 4 0 17 11 20 113
25 277 16 440 23 540 25 101 1 107 0 107 -19z m-1440 -85 c0 -10 -10 -15 -30
-15 -20 0 -30 5 -30 15 0 10 10 15 30 15 20 0 30 -5 30 -15z m-13 -48 c-6 -16
-57 -11 -57 5 0 6 9 8 20 5 11 -3 23 -1 26 5 9 14 17 2 11 -15z m-652 -20
c-18 -44 -55 -225 -55 -271 l0 -37 -31 16 c-61 32 -36 8 41 -39 45 -27 96 -50
119 -53 l40 -5 -2 -57 c-2 -54 -1 -56 24 -59 24 -3 27 1 33 37 4 25 12 41 20
41 7 0 35 3 62 7 l49 6 -48 -52 c-57 -61 -75 -100 -92 -199 -7 -40 -16 -76
-20 -80 -14 -15 -221 38 -295 75 -95 48 -102 65 -88 208 12 128 54 337 78 392
20 46 36 60 20 17 -20 -50 -39 -204 -30 -229 10 -26 72 -66 138 -89 61 -22 52
-10 -15 20 -82 36 -103 58 -103 110 0 43 20 158 40 233 l11 41 59 0 59 0 -14
-33z m71 17 c20 -5 20 -6 3 -42 -10 -20 -21 -49 -25 -64 -6 -28 -6 -28 37 -22
24 3 111 9 193 12 l150 7 8 32 c10 40 20 46 58 38 25 -6 28 -9 20 -25 -6 -11
-21 -65 -34 -121 -13 -56 -30 -108 -38 -115 -22 -22 -139 -48 -213 -48 -132 2
-201 13 -229 39 -15 14 -26 19 -26 11 0 -23 44 -55 91 -65 25 -6 54 -13 64
-17 14 -6 16 -4 10 6 -6 10 -1 12 25 7 18 -4 39 -7 47 -7 8 0 11 -4 8 -10 -3
-5 -17 -10 -30 -10 -25 0 -29 -7 -40 -72 -10 -63 -31 -47 -27 21 l4 58 -45 6
c-25 4 -62 14 -82 24 l-37 18 5 60 c12 124 54 285 74 285 4 0 17 -3 29 -6z
m1747 -15 l257 -13 0 -23 c0 -27 -39 -358 -46 -390 -4 -21 -10 -23 -60 -23
-31 0 -140 -16 -242 -35 -320 -59 -289 -57 -303 -23 -6 16 -10 30 -8 32 2 2
92 18 199 35 107 18 202 35 211 39 15 6 14 19 -3 137 -10 71 -23 134 -27 138
-12 12 -173 27 -298 27 l-112 0 -6 38 c-3 20 -8 48 -11 61 l-5 24 98 -6 c54
-4 214 -12 356 -18z m-1173 -19 c0 -13 -30 -13 -50 0 -11 7 -7 10 18 10 17 0
32 -4 32 -10z m-93 -34 c-3 -8 -15 -61 -27 -118 -27 -125 -52 -170 -112 -192
-42 -16 -238 -57 -238 -49 0 8 57 26 105 33 125 19 185 52 203 113 6 18 20 76
32 130 13 53 27 97 33 97 5 0 7 -6 4 -14z m38 -19 c-8 -13 -24 -66 -36 -118
-22 -102 -45 -147 -89 -179 -42 -30 -45 -24 -5 11 48 42 62 73 86 181 21 96
33 128 50 128 5 0 3 -11 -6 -23z m117 -9 c20 -20 21 -25 13 -177 -25 -500 -23
-476 -19 -256 2 110 7 247 10 304 l7 105 -29 23 c-16 12 -23 23 -16 23 6 0 22
-10 34 -22z m-77 -168 c-4 -69 -11 -150 -15 -180 -5 -33 -6 -6 -2 65 9 164 8
250 -3 267 -6 8 -2 5 9 -7 17 -18 18 -31 11 -145z m36 -152 c-6 -91 -11 -200
-11 -241 0 -65 -3 -79 -24 -104 -24 -28 -83 -54 -122 -52 -11 0 9 9 43 20 41
13 67 27 75 42 7 12 15 83 19 162 17 346 24 457 27 400 2 -33 -1 -135 -7 -227z
m3198 10 c-19 -16 -109 -27 -109 -13 0 3 26 25 58 50 l57 45 7 -32 c6 -27 3
-36 -13 -50z m29 -64 c73 -9 131 -19 128 -21 -2 -3 -53 -16 -113 -29 l-108
-25 -165 17 c-177 18 -230 36 -143 48 26 4 63 15 81 24 36 20 59 19 320 -14z
m-3321 -21 c-3 -10 -5 -2 -5 17 0 19 2 27 5 18 2 -10 2 -26 0 -35z m-9 -107
c-6 -86 -28 -129 -86 -170 -35 -24 -45 -26 -138 -24 l-99 1 100 6 c86 5 105
10 133 31 52 38 72 80 79 160 8 93 17 90 11 -4z"/>
<path d="M4506 4568 c9 -59 14 -60 14 -5 0 26 -5 47 -10 47 -6 0 -8 -16 -4
-42z"/>
<path d="M4590 4558 c0 -32 3 -39 10 -28 13 20 13 70 0 70 -5 0 -10 -19 -10
-42z"/>
<path d="M4492 4545 c0 -16 2 -22 5 -12 2 9 2 23 0 30 -3 6 -5 -1 -5 -18z"/>
<path d="M4532 4550 c0 -14 2 -19 5 -12 2 6 2 18 0 25 -3 6 -5 1 -5 -13z"/>
<path d="M2900 4365 c0 -51 -3 -65 -15 -65 -8 0 -15 -4 -15 -10 0 -5 7 -7 15
-4 10 4 15 0 15 -11 0 -11 -5 -15 -15 -11 -8 3 -15 1 -15 -4 0 -6 7 -10 15
-10 8 0 15 -4 15 -10 0 -5 -7 -10 -15 -10 -8 0 -15 -8 -14 -17 0 -11 3 -13 6
-5 8 21 23 13 23 -14 0 -14 -4 -23 -9 -19 -5 3 -12 1 -16 -5 -3 -5 1 -10 9
-10 9 0 16 -5 16 -11 0 -6 -7 -9 -15 -5 -8 3 -15 1 -15 -4 0 -6 7 -10 15 -10
8 0 15 -5 15 -11 0 -6 -7 -9 -15 -5 -8 3 -15 1 -15 -4 0 -6 7 -10 15 -10 21 0
19 -18 -2 -23 -16 -4 -16 -5 -1 -6 9 0 19 -9 21 -18 3 -10 5 71 6 180 0 108
-1 197 -4 197 -3 0 -5 -29 -5 -65z"/>
<path d="M2870 4409 c0 -5 5 -7 10 -4 6 3 10 8 10 11 0 2 -4 4 -10 4 -5 0 -10
-5 -10 -11z"/>
<path d="M2870 4370 c0 -5 5 -10 10 -10 6 0 10 5 10 10 0 6 -4 10 -10 10 -5 0
-10 -4 -10 -10z"/>
<path d="M2870 4330 c0 -5 5 -10 10 -10 6 0 10 5 10 10 0 6 -4 10 -10 10 -5 0
-10 -4 -10 -10z"/>
<path d="M2870 4050 c0 -5 5 -10 11 -10 5 0 7 5 4 10 -3 6 -8 10 -11 10 -2 0
-4 -4 -4 -10z"/>
<path d="M2870 4018 c0 -7 9 -14 20 -15 13 -1 20 4 19 15 0 11 -2 13 -6 4 -4
-10 -8 -10 -19 -1 -11 9 -14 8 -14 -3z"/>
<path d="M2888 3982 c-10 -2 -18 -8 -18 -13 0 -11 11 -11 30 1 18 11 11 18
-12 12z"/>
<path d="M2888 3943 c-10 -2 -18 -9 -18 -15 0 -5 6 -8 14 -5 10 4 16 -2 19
-16 3 -15 5 -12 6 11 0 17 0 31 -1 31 -2 -1 -11 -3 -20 -6z"/>
<path d="M2870 3900 c0 -5 5 -10 11 -10 5 0 7 5 4 10 -3 6 -8 10 -11 10 -2 0
-4 -4 -4 -10z"/>
<path d="M4353 3805 c0 -27 2 -38 4 -22 2 15 2 37 0 50 -2 12 -4 0 -4 -28z"/>
<path d="M4483 3700 c0 -30 2 -43 4 -27 2 15 2 39 0 55 -2 15 -4 2 -4 -28z"/>
<path d="M4428 3383 c6 -2 12 -11 12 -19 0 -18 16 -18 23 0 6 14 -13 27 -36
25 -8 0 -8 -2 1 -6z"/>
<path d="M1444 4108 c-5 -8 -2 -9 9 -5 19 7 47 -1 47 -14 0 -7 65 -125 77
-138 6 -8 21 13 28 39 5 22 1 28 -29 42 -19 10 -43 30 -53 45 -10 15 -22 31
-28 35 -15 12 -43 9 -51 -4z"/>
<path d="M1454 4080 c-12 -5 -26 -15 -30 -22 -6 -10 -5 -11 7 -1 8 7 26 9 39
6 l23 -6 -27 -22 c-33 -26 -29 -56 9 -73 20 -9 25 -9 25 3 0 7 -5 17 -10 20
-7 4 -7 12 0 25 24 44 3 84 -36 70z"/>
<path d="M1830 4063 c-42 -13 -40 -17 15 -28 33 -7 75 -16 93 -20 25 -6 32 -4
32 8 0 22 -104 51 -140 40z"/>
<path d="M1503 3755 c0 -27 2 -38 4 -22 2 15 2 37 0 50 -2 12 -4 0 -4 -28z"/>
<path d="M1900 3789 c0 -13 14 -16 40 -9 24 6 24 7 -7 11 -18 3 -33 2 -33 -2z"/>
<path d="M1938 3763 c6 -2 12 -12 12 -20 0 -13 3 -13 15 -3 23 19 18 30 -12
29 -16 0 -22 -3 -15 -6z"/>
<path d="M1865 3711 c-60 -7 -49 -18 27 -27 37 -4 58 -3 62 5 5 7 -3 11 -21
11 -22 0 -25 2 -13 10 8 5 11 9 5 8 -5 -1 -32 -4 -60 -7z"/>
<path d="M3338 3903 c-21 -8 -38 -19 -38 -23 0 -14 48 -17 71 -4 13 7 51 14
84 14 55 1 58 2 41 15 -26 19 -110 18 -158 -2z"/>
<path d="M3742 3902 c10 -12 10 -14 0 -8 -17 10 -27 -21 -12 -39 6 -8 9 -23 5
-35 -11 -33 22 -24 41 11 19 38 8 73 -26 82 -18 5 -19 3 -8 -11z m38 -37 c0
-5 -5 -3 -10 5 -5 8 -10 20 -10 25 0 6 5 3 10 -5 5 -8 10 -19 10 -25z"/>
<path d="M3350 3832 c0 -16 5 -33 12 -40 19 -19 73 -14 99 9 l24 20 -28 -6
c-19 -4 -26 -2 -22 5 4 6 -6 10 -24 10 -17 0 -31 4 -31 9 0 5 -7 11 -15 15
-11 4 -15 -2 -15 -22z"/>
<path d="M3259 3637 c7 -10 19 -17 26 -17 8 0 15 -5 17 -11 3 -8 14 -6 36 5
57 29 34 42 -36 20 -7 -2 -23 1 -35 8 -20 10 -21 10 -8 -5z"/>
<path d="M3296 3560 c-17 -18 -18 -20 -2 -26 9 -4 35 -4 56 -1 23 3 38 1 34
-4 -3 -5 -21 -9 -39 -9 -27 0 -33 -3 -29 -15 4 -8 18 -18 32 -22 21 -5 30 -1
47 22 11 16 30 39 42 52 l21 22 -26 -4 c-87 -13 -116 -15 -102 -5 13 9 13 10
0 9 -8 0 -24 -9 -34 -19z"/>
<path d="M2334 3400 c0 -124 2 -174 3 -112 2 61 2 163 0 225 -1 61 -3 11 -3
-113z"/>
<path d="M3522 3270 c0 -14 2 -19 5 -12 2 6 2 18 0 25 -3 6 -5 1 -5 -13z"/>
<path d="M3182 3530 c0 -14 2 -19 5 -12 2 6 2 18 0 25 -3 6 -5 1 -5 -13z"/>
<path d="M1630 2598 c10 -18 39 -86 64 -150 52 -134 88 -209 109 -226 18 -16
-132 335 -162 377 -29 41 -36 40 -11 -1z"/>
<path d="M790 2554 c-38 -82 -51 -120 -29 -81 21 36 78 167 73 167 -3 0 -23
-39 -44 -86z"/>
<path d="M989 2276 c-81 -33 -123 -61 -169 -113 -56 -64 -50 -74 10 -19 64 57
161 106 211 106 68 0 88 18 44 38 -33 15 -30 16 -96 -12z"/>
<path d="M826 2109 c-28 -22 -90 -109 -121 -169 -33 -65 11 -14 51 58 21 37
53 81 73 99 40 36 38 44 -3 12z"/>
<path d="M3353 3233 c-52 -70 -113 -178 -113 -201 0 -21 26 -24 60 -7 39 20
32 31 -9 17 -20 -7 -31 -7 -31 -1 0 16 40 90 89 164 62 95 62 95 58 95 -1 0
-26 -30 -54 -67z"/>
<path d="M3167 2923 c-53 -74 -59 -88 -46 -116 9 -20 6 -33 -18 -78 -41 -78
-44 -177 -9 -279 14 -41 23 -64 20 -50 -2 14 -12 58 -20 98 -21 96 -8 175 40
247 32 49 33 52 15 63 -10 7 -19 16 -19 21 0 5 20 39 44 75 51 76 45 90 -7 19z"/>
<path d="M3103 2023 c9 -2 23 -2 30 0 6 3 -1 5 -18 5 -16 0 -22 -2 -12 -5z"/>
<path d="M3008 2013 c12 -2 30 -2 40 0 9 3 -1 5 -23 4 -22 0 -30 -2 -17 -4z"/>
<path d="M3026 1999 c-86 -11 -183 -36 -216 -55 -16 -10 -18 -13 -5 -9 60 19
181 47 260 59 99 15 70 19 -39 5z"/>
<path d="M4155 2166 c-27 -12 -56 -30 -64 -40 -10 -12 1 -9 36 10 71 36 156
43 212 16 31 -15 39 -17 30 -6 -40 49 -134 58 -214 20z"/>
<path d="M3735 1925 c14 -6 254 -45 268 -44 28 1 -45 22 -123 35 -77 13 -170
18 -145 9z"/>
<path d="M540 3045 c0 -30 3 -35 13 -26 8 6 17 7 21 3 4 -4 6 6 4 23 -2 19 -9
31 -20 33 -15 3 -18 -4 -18 -33z"/>
<path d="M2640 2355 c0 -30 5 -55 10 -55 6 0 10 25 10 55 0 30 -4 55 -10 55
-5 0 -10 -25 -10 -55z"/>
<path d="M2690 2366 c0 -35 4 -45 20 -49 18 -5 20 0 20 44 0 42 -3 49 -20 49
-17 0 -20 -7 -20 -44z"/>
<path d="M2760 2365 c0 -38 3 -45 20 -45 17 0 20 7 20 45 0 38 -3 45 -20 45
-17 0 -20 -7 -20 -45z"/>
<path d="M2350 2360 c0 -29 4 -40 15 -40 11 0 15 11 15 40 0 29 -4 40 -15 40
-11 0 -15 -11 -15 -40z"/>
<path d="M2415 2369 c-5 -22 -3 -36 9 -47 15 -15 16 -12 16 31 0 53 -15 63
-25 16z"/>
<path d="M2480 2360 c0 -22 5 -40 10 -40 6 0 10 18 10 40 0 22 -4 40 -10 40
-5 0 -10 -18 -10 -40z"/>
<path d="M2530 2356 c0 -35 4 -46 16 -46 12 0 14 9 12 42 -4 59 -28 63 -28 4z"/>
<path d="M2584 2376 c-7 -30 -2 -56 11 -59 6 -1 11 17 13 41 3 45 -13 58 -24
18z"/>
<path d="M2458 2293 c28 -2 76 -2 105 0 28 2 5 3 -53 3 -58 0 -81 -1 -52 -3z"/>
<path d="M2700 2290 c0 -5 9 -10 20 -10 11 0 20 5 20 10 0 6 -9 10 -20 10 -11
0 -20 -4 -20 -10z"/>
<path d="M2360 2241 c0 -22 5 -43 10 -46 6 -4 10 12 10 39 0 25 -4 46 -10 46
-5 0 -10 -18 -10 -39z"/>
<path d="M2760 2256 c0 -8 5 -18 11 -21 6 -4 8 -13 5 -21 -3 -8 -1 -14 4 -14
6 0 10 16 10 35 0 24 -5 35 -15 35 -8 0 -15 -6 -15 -14z"/>
<path d="M2328 2113 c12 -2 30 -2 40 0 9 3 -1 5 -23 4 -22 0 -30 -2 -17 -4z"/>
<path d="M2268 2103 c7 -3 16 -2 19 1 4 3 -2 6 -13 5 -11 0 -14 -3 -6 -6z"/>
<path d="M2325 2091 c-4 -7 12 -11 48 -11 92 0 201 -41 274 -102 l38 -32 -35
38 c-38 41 -103 78 -165 94 -69 18 -153 24 -160 13z"/>
<path d="M4725 2371 c-6 -11 33 -26 43 -16 4 3 0 10 -8 15 -19 12 -27 12 -35
1z"/>
<path d="M4710 2310 c0 -5 9 -10 20 -10 11 0 20 5 20 10 0 6 -9 10 -20 10 -11
0 -20 -4 -20 -10z"/>
<path d="M4720 2204 c0 -9 7 -14 17 -12 25 5 28 28 4 28 -12 0 -21 -6 -21 -16z"/>
<path d="M4640 2150 c0 -5 5 -10 10 -10 6 0 10 5 10 10 0 6 -4 10 -10 10 -5 0
-10 -4 -10 -10z"/>
<path d="M4680 2150 c0 -5 16 -10 35 -10 19 0 35 5 35 10 0 6 -16 10 -35 10
-19 0 -35 -4 -35 -10z"/>
<path d="M4630 2095 c0 -8 7 -15 15 -15 8 0 15 7 15 15 0 8 -7 15 -15 15 -8 0
-15 -7 -15 -15z"/>
<path d="M4680 2095 c0 -10 11 -15 35 -15 24 0 35 5 35 15 0 10 -11 15 -35 15
-24 0 -35 -5 -35 -15z"/>
<path d="M1715 1196 c-18 -26 -11 -53 15 -61 26 -8 49 4 56 31 13 50 -43 73
-71 30z"/>
<path d="M1922 1208 c-30 -30 -3 -83 39 -76 29 4 43 29 35 61 -5 21 -12 27
-34 27 -15 0 -33 -5 -40 -12z"/>
<path d="M3743 1301 c5 -127 16 -169 39 -155 7 4 6 9 -1 13 -6 4 -13 61 -17
134 -4 70 -12 131 -17 134 -7 4 -8 -39 -4 -126z"/>
<path d="M2855 1300 c-4 -6 23 -10 75 -10 52 0 79 4 75 10 -3 6 -37 10 -75 10
-38 0 -72 -4 -75 -10z"/>
<path d="M225 1340 c3 -5 10 -10 16 -10 5 0 9 5 9 10 0 6 -7 10 -16 10 -8 0
-12 -4 -9 -10z"/>
<path d="M4901 1434 c0 -11 3 -14 6 -6 3 7 2 16 -1 19 -3 4 -6 -2 -5 -13z"/>
<path d="M96 4453 c-29 -15 -33 -30 -39 -121 -3 -49 -8 -67 -26 -84 -22 -19
-23 -27 -17 -87 3 -36 6 -79 6 -96 0 -23 3 -27 10 -15 5 8 10 52 10 96 0 104
5 108 122 112 l88 4 0 34 0 35 -72 -3 c-71 -3 -73 -4 -76 -30 -5 -42 -22 -33
-22 11 0 26 5 41 16 45 20 8 88 8 137 0 36 -6 37 -8 37 -49 0 -25 5 -45 13
-48 6 -3 -32 -6 -85 -6 -75 -1 -98 -4 -98 -14 0 -11 22 -13 105 -9 92 4 105 3
105 -12 0 -14 -13 -16 -89 -16 -97 0 -151 -8 -151 -21 0 -5 52 -9 115 -9 l115
0 0 -45 0 -45 -111 0 c-112 0 -149 -9 -149 -35 0 -13 4 -13 36 0 51 21 224 21
224 0 0 -12 -23 -15 -127 -17 -109 -3 -128 -5 -131 -19 -3 -14 3 -15 40 -8 52
10 154 11 197 3 64 -13 27 -24 -81 -24 -121 0 -158 -6 -158 -24 0 -8 38 -10
130 -7 90 2 130 0 130 -8 0 -7 -20 -11 -49 -11 -30 0 -51 -5 -54 -12 -4 -10
-6 -10 -6 0 -1 8 -19 12 -57 12 -60 0 -94 -13 -94 -35 0 -11 5 -12 26 -5 14 6
72 10 130 10 86 0 104 -3 104 -15 0 -12 -19 -15 -114 -15 -124 0 -146 -4 -146
-27 0 -11 5 -13 18 -7 9 4 68 9 130 12 98 4 112 2 112 -12 0 -14 -15 -16 -107
-16 -120 0 -153 -6 -153 -26 0 -10 8 -12 32 -6 57 12 231 9 235 -5 4 -10 -26
-13 -125 -13 -104 0 -132 -3 -142 -15 -18 -22 -9 -26 31 -15 18 6 78 10 131
10 80 0 98 -3 98 -15 0 -13 -21 -15 -130 -15 -99 0 -130 -3 -130 -13 0 -10 29
-12 130 -9 115 4 130 2 130 -12 0 -14 -17 -16 -130 -16 -109 0 -130 -2 -130
-15 0 -16 39 -21 56 -7 13 10 204 3 204 -9 0 -5 -22 -9 -49 -9 -70 0 -141 -11
-135 -21 3 -5 45 -9 95 -9 49 0 89 -4 89 -9 0 -5 -58 -12 -130 -16 -88 -4
-130 -11 -130 -18 0 -9 38 -11 135 -9 90 2 135 0 135 -7 0 -6 -21 -11 -47 -12
-239 -4 -323 -29 -101 -29 81 0 139 -4 143 -10 6 -10 -64 -13 -202 -10 -52 1
-63 -1 -63 -15 0 -14 10 -15 78 -9 42 3 79 6 82 6 84 0 100 -3 100 -17 0 -12
-23 -15 -127 -17 -73 -2 -128 -7 -130 -13 -2 -6 43 -9 127 -6 90 2 130 0 130
-8 0 -7 -38 -11 -114 -11 -63 0 -121 -3 -130 -6 -41 -16 -5 -20 122 -16 75 2
134 1 131 -2 -3 -4 -50 -8 -103 -9 l-96 -2 0 -104 0 -104 53 7 c122 16 119 14
112 57 -8 47 1 79 22 79 9 0 45 5 81 11 l64 11 -7 209 c-5 150 -4 209 4 209 6
0 11 7 11 15 0 20 -26 19 -34 -1 -3 -9 -6 -60 -6 -115 0 -83 -2 -97 -15 -93
-17 7 -19 79 -8 427 l6 217 89 0 88 0 0 -34 c0 -25 5 -35 20 -39 19 -5 20 -14
20 -151 l0 -146 -100 0 c-60 0 -100 -4 -100 -10 0 -6 40 -10 100 -10 l100 0 0
-229 0 -229 32 -20 c18 -11 36 -18 40 -16 4 3 8 114 8 247 l0 243 -30 26 c-16
14 -30 34 -30 44 0 15 5 13 30 -11 l30 -29 0 130 0 130 -53 66 c-73 90 -141
168 -148 168 -3 0 -29 -29 -57 -65 l-52 -64 0 -141 c0 -87 -4 -140 -10 -140
-6 0 -10 -63 -10 -170 0 -144 -2 -170 -15 -170 -13 0 -15 44 -15 338 0 215 -4
342 -10 348 -6 6 -13 54 -17 108 -3 57 -11 99 -17 101 -38 12 -166 10 -190 -2z
m429 -251 c-19 -2 -51 -2 -70 0 l-34 3 32 42 32 43 38 -43 37 -42 -35 -3z
m-378 -868 c-3 -3 -12 -4 -19 -1 -8 3 -5 6 6 6 11 1 17 -2 13 -5z m56 -1 c-7
-2 -21 -2 -30 0 -10 3 -4 5 12 5 17 0 24 -2 18 -5z m54 1 c-3 -3 -12 -4 -19
-1 -8 3 -5 6 6 6 11 1 17 -2 13 -5z"/>
<path d="M657 4400 c-21 -12 -47 -18 -57 -15 -10 3 -38 -4 -61 -15 -55 -28
-38 -40 56 -39 39 1 62 3 53 6 -31 8 -18 28 48 70 32 20 1 14 -39 -7z m-47
-40 c0 -5 -15 -10 -32 -9 -31 1 -32 1 -8 9 35 11 40 11 40 0z"/>
<path d="M168 4143 c-62 -7 -47 -29 24 -37 34 -3 63 -5 64 -3 2 2 1 13 -3 25
-5 23 -7 23 -85 15z"/>
<path d="M594 3620 c0 -85 2 -120 3 -77 2 42 2 112 0 155 -1 42 -3 7 -3 -78z"/>
<path d="M2 3655 c0 -16 2 -22 5 -12 2 9 2 23 0 30 -3 6 -5 -1 -5 -18z"/>
<path d="M53 3623 c-7 -2 -13 -11 -13 -19 0 -11 7 -13 28 -8 34 8 36 10 27 23
-6 11 -21 13 -42 4z"/>
<path d="M0 3542 c0 -40 4 -72 9 -72 10 0 8 126 -2 136 -4 4 -7 -25 -7 -64z"/>
<path d="M593 3400 c0 -36 2 -50 4 -32 2 17 2 47 0 65 -2 17 -4 3 -4 -33z"/>
<path d="M0 3389 c0 -22 4 -38 9 -35 11 7 10 76 -1 76 -4 0 -8 -18 -8 -41z"/>
<path d="M40 3330 c0 -5 11 -10 25 -10 14 0 25 5 25 10 0 6 -11 10 -25 10 -14
0 -25 -4 -25 -10z"/>
<path d="M0 3310 c0 -11 5 -20 10 -20 6 0 10 9 10 20 0 11 -4 20 -10 20 -5 0
-10 -9 -10 -20z"/>
<path d="M40 3290 c0 -5 11 -10 25 -10 14 0 25 5 25 10 0 6 -11 10 -25 10 -14
0 -25 -4 -25 -10z"/>
<path d="M543 3293 c-8 -3 -13 -25 -13 -59 l0 -54 35 0 c35 0 35 0 35 44 0 71
-14 87 -57 69z"/>
<path d="M0 3251 c0 -17 5 -31 10 -31 6 0 10 11 10 24 0 14 -4 28 -10 31 -6 4
-10 -7 -10 -24z"/>
<path d="M376 3270 c-74 -13 -78 -15 -74 -57 4 -50 28 -57 28 -8 0 33 2 36 16
24 8 -7 13 -21 11 -31 -3 -11 0 -18 9 -18 9 0 14 12 14 35 0 27 4 35 18 35 18
0 61 -26 74 -44 4 -6 8 8 8 32 0 47 -3 48 -104 32z"/>
<path d="M40 3246 c0 -9 8 -12 25 -8 14 2 25 8 25 13 0 5 -11 9 -25 9 -14 0
-25 -6 -25 -14z"/>
<path d="M300 3130 c-21 -7 -19 -8 18 -9 23 -1 42 4 42 9 0 12 -24 12 -60 0z"/>
<path d="M402 3110 c0 -14 2 -19 5 -12 2 6 2 18 0 25 -3 6 -5 1 -5 -13z"/>
<path d="M295 3080 c3 -5 17 -10 30 -10 13 0 27 5 30 10 4 6 -8 10 -30 10 -22
0 -34 -4 -30 -10z"/>
<path d="M280 3030 c0 -5 15 -10 34 -10 19 0 38 5 41 10 4 6 -10 10 -34 10
-23 0 -41 -4 -41 -10z"/>
<path d="M290 2980 c-11 -7 -4 -10 28 -10 23 0 42 5 42 10 0 13 -50 13 -70 0z"/>
<path d="M280 2930 c0 -5 18 -10 40 -10 22 0 40 5 40 10 0 6 -18 10 -40 10
-22 0 -40 -4 -40 -10z"/>
<path d="M298 2883 c12 -2 32 -2 45 0 12 2 2 4 -23 4 -25 0 -35 -2 -22 -4z"/>
<path d="M5032 2740 c0 -22 4 -40 9 -40 4 0 7 18 7 40 0 22 -4 40 -9 40 -4 0
-7 -18 -7 -40z"/>
<path d="M5070 2765 c0 -8 7 -15 15 -15 8 0 15 7 15 15 0 8 -7 15 -15 15 -8 0
-15 -7 -15 -15z"/>
<path d="M4903 2735 c-1 -49 14 -53 19 -5 2 24 -1 40 -7 40 -6 0 -11 -16 -12
-35z"/>
<path d="M4940 2761 c0 -6 5 -13 10 -16 6 -3 10 1 10 9 0 9 -4 16 -10 16 -5 0
-10 -4 -10 -9z"/>
<path d="M4980 2760 c0 -5 7 -10 15 -10 8 0 15 5 15 10 0 6 -7 10 -15 10 -8 0
-15 -4 -15 -10z"/>
<path d="M340 2731 c0 -6 5 -13 10 -16 6 -3 10 1 10 9 0 9 -4 16 -10 16 -5 0
-10 -4 -10 -9z"/>
<path d="M4944 2719 c-3 -6 -1 -16 5 -22 8 -8 11 -5 11 11 0 24 -5 28 -16 11z"/>
<path d="M4990 2715 c0 -8 5 -15 10 -15 6 0 10 7 10 15 0 8 -4 15 -10 15 -5 0
-10 -7 -10 -15z"/>
<path d="M5070 2715 c0 -8 7 -15 15 -15 8 0 15 7 15 15 0 8 -7 15 -15 15 -8 0
-15 -7 -15 -15z"/>
<path d="M4905 2667 c-4 -10 -5 -21 -1 -24 10 -10 18 4 13 24 -4 17 -4 17 -12
0z"/>
<path d="M4940 2666 c0 -8 5 -18 10 -21 6 -3 10 3 10 14 0 12 -4 21 -10 21 -5
0 -10 -6 -10 -14z"/>
<path d="M4986 2665 c-3 -9 0 -15 9 -15 8 0 15 7 15 15 0 8 -4 15 -9 15 -5 0
-11 -7 -15 -15z"/>
<path d="M5030 2665 c0 -8 5 -15 10 -15 6 0 10 7 10 15 0 8 -4 15 -10 15 -5 0
-10 -7 -10 -15z"/>
<path d="M5070 2665 c0 -8 9 -15 20 -15 11 0 20 7 20 15 0 8 -9 15 -20 15 -11
0 -20 -7 -20 -15z"/>
<path d="M4940 2615 c0 -8 5 -15 10 -15 6 0 10 7 10 15 0 8 -4 15 -10 15 -5 0
-10 -7 -10 -15z"/>
<path d="M4990 2615 c0 -8 5 -15 10 -15 6 0 10 7 10 15 0 8 -4 15 -10 15 -5 0
-10 -7 -10 -15z"/>
<path d="M5030 2615 c0 -8 5 -15 10 -15 6 0 10 7 10 15 0 8 -4 15 -10 15 -5 0
-10 -7 -10 -15z"/>
<path d="M5070 2615 c0 -8 9 -15 20 -15 11 0 20 7 20 15 0 8 -9 15 -20 15 -11
0 -20 -7 -20 -15z"/>
<path d="M4990 2565 c0 -8 5 -15 10 -15 6 0 10 7 10 15 0 8 -4 15 -10 15 -5 0
-10 -7 -10 -15z"/>
<path d="M5030 2565 c0 -8 5 -15 10 -15 6 0 10 7 10 15 0 8 -4 15 -10 15 -5 0
-10 -7 -10 -15z"/>
<path d="M5070 2565 c0 -8 6 -15 14 -15 8 0 16 7 20 15 4 10 -1 15 -14 15 -11
0 -20 -7 -20 -15z"/>
<path d="M5030 2515 c0 -8 5 -15 10 -15 6 0 10 7 10 15 0 8 -4 15 -10 15 -5 0
-10 -7 -10 -15z"/>
<path d="M5070 2514 c0 -9 7 -14 17 -12 25 5 28 28 4 28 -12 0 -21 -6 -21 -16z"/>
<path d="M5030 2465 c0 -8 5 -15 10 -15 6 0 10 7 10 15 0 8 -4 15 -10 15 -5 0
-10 -7 -10 -15z"/>
<path d="M5070 2465 c0 -8 7 -15 15 -15 8 0 15 7 15 15 0 8 -7 15 -15 15 -8 0
-15 -7 -15 -15z"/>
<path d="M220 2411 c0 -12 5 -21 10 -21 6 0 10 6 10 14 0 8 -4 18 -10 21 -5 3
-10 -3 -10 -14z"/>
<path d="M5070 2415 c0 -8 4 -15 9 -15 5 0 14 7 21 15 10 13 9 15 -9 15 -12 0
-21 -6 -21 -15z"/>
<path d="M270 2405 c0 -8 6 -15 14 -15 8 0 16 7 20 15 4 10 -1 15 -14 15 -11
0 -20 -7 -20 -15z"/>
<path d="M220 2355 c0 -25 14 -34 24 -16 8 12 -3 41 -15 41 -5 0 -9 -11 -9
-25z"/>
<path d="M270 2355 c0 -16 6 -25 15 -25 9 0 15 9 15 25 0 16 -6 25 -15 25 -9
0 -15 -9 -15 -25z"/>
<path d="M220 2300 c0 -11 7 -20 15 -20 8 0 15 9 15 20 0 11 -7 20 -15 20 -8
0 -15 -9 -15 -20z"/>
<path d="M270 2300 c0 -11 7 -20 15 -20 8 0 15 9 15 20 0 11 -7 20 -15 20 -8
0 -15 -9 -15 -20z"/>
<path d="M221 2195 c0 -56 3 -75 13 -75 10 0 13 19 13 75 0 54 -4 75 -13 75
-8 0 -12 -22 -13 -75z"/>
<path d="M270 2250 c0 -11 6 -20 13 -20 19 0 27 10 20 26 -8 21 -33 17 -33 -6z"/>
<path d="M270 2194 c0 -31 23 -28 28 4 2 15 -2 22 -12 22 -11 0 -16 -9 -16
-26z"/>
<path d="M270 2139 c0 -14 5 -19 17 -17 26 5 29 38 4 38 -15 0 -21 -6 -21 -21z"/>
<path d="M220 2085 c0 -16 6 -25 15 -25 9 0 15 9 15 25 0 16 -6 25 -15 25 -9
0 -15 -9 -15 -25z"/>
<path d="M270 2085 c0 -16 6 -25 15 -25 9 0 15 9 15 25 0 16 -6 25 -15 25 -9
0 -15 -9 -15 -25z"/>
<path d="M220 2025 c0 -16 6 -25 15 -25 9 0 15 9 15 25 0 16 -6 25 -15 25 -9
0 -15 -9 -15 -25z"/>
<path d="M270 2030 c0 -11 7 -20 15 -20 8 0 15 9 15 20 0 11 -7 20 -15 20 -8
0 -15 -9 -15 -20z"/>
<path d="M277 1993 c-13 -12 -7 -43 7 -43 19 0 28 14 20 34 -7 17 -16 20 -27
9z"/>
<path d="M220 1915 c0 -60 3 -75 15 -75 19 0 21 80 3 98 -9 9 -9 12 0 12 7 0
12 9 12 20 0 11 -7 20 -15 20 -12 0 -15 -15 -15 -75z"/>
<path d="M4620 1940 c167 -12 500 -11 500 0 0 6 -106 9 -302 8 -225 -1 -276
-3 -198 -8z"/>
<path d="M270 1915 c0 -16 6 -25 15 -25 9 0 15 9 15 25 0 16 -6 25 -15 25 -9
0 -15 -9 -15 -25z"/>
<path d="M4520 1861 c0 -7 102 -11 298 -13 163 -2 299 -2 301 0 13 7 -32 10
-301 16 -203 5 -298 4 -298 -3z"/>
<path d="M3241 1603 c-20 -73 -41 -240 -61 -478 -23 -274 -23 -265 -12 -265 4
0 16 73 26 163 10 89 31 256 47 372 16 115 29 218 29 227 0 32 -19 19 -29 -19z"/>
<path d="M4855 1300 c-3 -5 1 -10 10 -10 9 0 13 5 10 10 -3 6 -8 10 -10 10 -2
0 -7 -4 -10 -10z"/>
<path d="M4775 494 c19 -7 338 -44 343 -39 11 10 -6 14 -140 29 -127 15 -227
20 -203 10z"/>
</g>
</svg>