<?xml version="1.0" standalone="no"?>
<!DOCTYPE svg PUBLIC "-//W3C//DTD SVG 20010904//EN"
 "http://www.w3.org/TR/2001/REC-SVG-20010904/DTD/svg10.dtd">
<svg version="1.0" xmlns="http://www.w3.org/2000/svg"
 width="512.000000pt" height="512.000000pt" viewBox="0 0 512.000000 512.000000"
 preserveAspectRatio="xMidYMid meet">
<g transform="translate(0.000000,512.000000) scale(0.100000,-0.100000)"
style="fill: #a3a3a3;" stroke="none">
<path d="M2370 4989 c-25 -11 -55 -29 -66 -40 -20 -18 -28 -19 -75 -11 -67 13
-137 1 -194 -33 -55 -31 -184 -169 -228 -243 -76 -124 -115 -293 -123 -532
l-6 -175 -40 -71 -40 -70 -59 -2 c-70 -2 -85 -10 -136 -74 -34 -44 -41 -48
-68 -42 -47 11 -104 6 -141 -12 -46 -22 -102 -89 -110 -131 -4 -22 -14 -38
-28 -43 -272 -113 -545 -248 -595 -293 -49 -45 -121 -169 -150 -261 -42 -130
-52 -201 -50 -334 1 -103 -4 -146 -44 -352 -25 -129 -53 -280 -62 -335 -8 -55
-27 -157 -41 -226 -41 -194 -21 -229 74 -133 64 65 152 114 205 114 66 0 268
-116 298 -171 7 -14 -7 -8 -50 21 -111 76 -185 86 -301 41 -144 -55 -217 -123
-226 -212 l-5 -54 14 37 c33 87 92 137 200 170 87 26 166 21 259 -17 67 -28
128 -69 118 -79 -4 -3 -37 0 -75 6 -110 17 -215 6 -290 -31 -76 -38 -161 -125
-201 -208 -25 -51 -29 -69 -29 -148 0 -72 5 -100 23 -141 42 -94 101 -131 317
-199 l100 -31 3 -67 c2 -45 -4 -91 -18 -140 -43 -156 -13 -243 109 -309 22
-12 31 -24 31 -43 0 -14 4 -25 9 -25 11 0 21 25 21 51 0 16 6 18 43 14 23 -3
125 -10 227 -15 102 -6 291 -17 420 -26 129 -8 271 -14 315 -12 l80 3 3 49 3
49 -143 -7 c-400 -17 -478 -18 -694 -2 -278 20 -314 27 -354 72 -37 43 -39 82
-6 145 39 73 42 127 10 231 -4 14 -1 15 31 5 37 -11 36 -8 66 -130 8 -31 10
-86 6 -150 -4 -75 -3 -94 4 -72 16 46 13 213 -4 267 l-15 47 67 -52 c117 -93
181 -122 401 -177 103 -26 437 -86 585 -105 90 -12 85 -6 85 -101 l0 -84 35 0
35 0 0 78 0 79 30 -5 c29 -4 30 -6 30 -57 0 -90 -10 -85 181 -85 l169 0 20 40
c27 53 25 79 -12 177 -30 78 -31 87 -17 111 9 16 32 33 63 43 l48 18 156 -100
c199 -126 199 -126 293 -26 78 83 85 75 37 -39 -28 -68 -30 -79 -19 -109 9
-25 9 -40 2 -54 -6 -11 -15 -31 -21 -45 -9 -24 -8 -26 20 -26 27 0 33 7 56 53
l27 54 636 7 c350 4 662 11 694 15 66 8 65 9 97 -71 18 -48 26 -58 46 -58 30
0 30 3 -1 78 -30 75 -30 79 -4 87 11 4 36 20 55 37 42 37 45 77 10 169 -13 35
-27 79 -31 96 l-7 33 92 0 c87 0 93 1 120 28 40 41 51 93 53 265 l2 152 68 2
c126 3 207 67 207 162 -1 43 -2 45 -15 27 -8 -11 -15 -23 -15 -27 0 -14 -70
-31 -100 -24 -27 6 -80 55 -80 75 0 5 14 5 31 0 40 -12 84 -3 135 26 45 25 67
53 78 99 l8 30 -26 -24 c-60 -56 -174 1 -192 97 -8 44 8 92 52 154 37 52 99
171 121 233 49 136 30 266 -53 365 -15 18 -64 56 -108 84 -45 29 -86 59 -92
67 -6 8 -19 43 -29 79 -33 121 -111 254 -217 367 -47 51 -60 71 -35 57 146
-86 242 -193 294 -328 18 -45 22 -52 18 -26 -8 55 -71 173 -120 228 -25 28
-74 71 -109 96 -86 61 -139 124 -160 188 -9 29 -21 115 -27 193 -22 325 -85
492 -244 652 -106 106 -183 146 -296 151 -54 3 -95 -1 -135 -13 -39 -12 -87
-17 -139 -16 -163 4 -311 -80 -422 -238 -26 -36 -69 -90 -95 -119 -63 -70 -94
-125 -129 -225 -49 -141 -36 -202 66 -316 92 -103 101 -139 60 -247 -28 -74
-32 -148 -11 -197 7 -18 39 -57 70 -87 74 -71 96 -108 96 -158 0 -31 -5 -44
-19 -52 -27 -14 -84 -13 -99 2 -9 9 -12 9 -12 -3 0 -41 78 -70 129 -49 51 21
60 89 23 165 -8 17 -35 53 -61 80 l-46 50 53 -50 c62 -59 92 -115 92 -173 0
-56 -19 -73 -116 -106 -43 -14 -90 -37 -105 -52 l-26 -25 -7 93 c-10 132 -38
263 -85 408 -49 151 -59 162 -221 250 -63 34 -151 84 -195 112 -78 49 -81 52
-111 124 l-32 74 42 36 c37 32 151 94 173 94 4 0 25 14 45 30 36 30 51 63 87
196 10 36 16 42 66 63 41 17 56 29 60 47 3 13 7 35 10 49 3 13 20 58 39 99
l34 74 60 -5 c84 -8 127 3 170 41 20 18 55 43 77 54 53 27 103 80 115 123 14
46 13 122 -2 154 l-12 26 -12 -29 c-15 -37 -43 -44 -91 -22 -50 23 -84 60
-126 140 -139 264 -175 320 -264 407 -71 71 -169 125 -265 148 -84 20 -124 18
-178 -6z m304 -80 c23 -6 56 -22 72 -35 l29 -25 -35 18 c-28 14 -59 18 -147
18 -109 0 -116 5 -38 25 44 12 71 11 119 -1z m-445 -25 c2 -2 -21 -4 -53 -4
-31 0 -72 -7 -91 -14 -19 -8 -35 -13 -35 -11 0 7 44 28 75 36 27 6 94 2 104
-7z m96 -53 c11 -5 -24 -7 -80 -7 -55 1 -113 -2 -130 -6 l-30 -7 30 14 c32 15
176 19 210 6z m283 -30 c22 -11 69 -43 104 -70 36 -27 88 -61 117 -76 29 -14
51 -29 48 -31 -9 -9 -89 36 -162 91 -90 66 -127 86 -195 102 l-55 13 52 -4
c28 -3 69 -14 91 -25z m-303 -31 c-31 -11 -44 -20 -35 -23 8 -3 38 -13 67 -22
70 -22 98 -46 116 -100 18 -53 10 -62 -35 -38 -28 15 -59 18 -198 18 -134 1
-172 4 -204 18 -46 21 -44 31 5 17 43 -13 125 -12 214 0 88 13 148 4 186 -27
42 -36 36 -14 -8 29 -61 58 -116 80 -196 80 -38 -1 -83 -3 -101 -7 -33 -6 65
32 149 58 70 21 101 19 40 -3z m226 -9 c24 -15 55 -41 69 -56 19 -21 10 -17
-36 16 -34 24 -70 49 -80 56 -11 6 -14 12 -8 12 5 1 30 -12 55 -28z m32 -217
c77 -67 115 -79 262 -79 129 0 131 0 171 -30 41 -30 122 -117 94 -100 -8 5
-35 24 -60 41 -68 49 -94 56 -220 58 -96 1 -123 5 -160 24 -65 31 -146 106
-180 166 -44 76 -36 88 11 17 22 -33 59 -77 82 -97z m37 111 c66 -48 108 -64
202 -76 89 -11 140 -33 178 -75 l25 -28 -29 22 c-40 31 -84 36 -180 22 -76
-12 -90 -11 -130 4 -24 9 -50 24 -57 32 -9 11 -2 9 22 -4 19 -11 49 -23 67
-27 36 -7 112 2 112 15 0 4 -26 13 -57 19 -66 13 -145 55 -187 100 -39 41 -25
39 34 -4z m-561 -67 c52 -38 105 -45 220 -29 116 15 215 -8 291 -70 l25 -20
-37 16 c-21 8 -55 23 -75 33 -32 14 -63 17 -196 14 -161 -2 -181 1 -222 39
-11 10 -33 25 -50 33 -16 9 -23 16 -14 16 8 0 34 -14 58 -32z m328 -140 c81 1
144 -1 141 -4 -12 -11 -197 -32 -240 -27 -49 7 -125 42 -151 70 -13 15 -4 13
43 -10 59 -30 63 -30 207 -29z m-423 2 c-22 -5 -58 -16 -80 -24 -33 -13 -36
-14 -20 -1 11 8 26 15 33 15 7 0 13 5 13 10 0 6 21 10 48 9 l47 -1 -41 -8z
m283 -69 c65 -18 147 -13 230 15 65 21 89 25 143 19 36 -3 124 -9 195 -14 153
-8 164 -13 255 -106 66 -68 59 -74 -15 -15 -68 55 -132 80 -206 80 -98 0 -150
-22 -232 -99 l-71 -66 49 58 c54 63 90 89 151 111 39 13 39 13 -61 21 -89 6
-111 4 -200 -19 -54 -14 -116 -26 -137 -26 -58 0 -140 35 -179 77 l-34 37 37
-31 c21 -18 54 -37 75 -42z m-244 -50 c49 -58 58 -180 21 -269 -18 -45 -18
-76 2 -92 13 -11 23 -5 72 42 74 72 87 78 172 78 62 0 74 3 95 25 14 13 25 28
25 32 0 4 22 6 50 5 59 -5 110 11 151 45 43 36 70 24 137 -59 49 -61 60 -69
113 -84 71 -20 72 -27 28 -129 -17 -38 -39 -92 -49 -120 l-17 -50 -61 -7 c-61
-7 -109 -25 -130 -50 -6 -7 -22 -55 -35 -106 -30 -111 -50 -147 -75 -133 -27
15 -92 79 -92 90 0 5 7 16 15 25 19 19 1 33 -20 16 -23 -19 -18 -61 12 -92 31
-33 21 -55 -20 -44 -26 6 -147 120 -147 137 0 5 26 10 58 10 l57 1 -50 13
c-27 7 -71 14 -97 14 -39 1 -50 -3 -67 -25 -28 -36 -27 -53 2 -26 l24 22 12
-27 c7 -16 19 -48 27 -72 7 -24 30 -61 51 -83 33 -33 43 -38 83 -37 72 1 89
12 38 26 -54 15 -122 72 -150 126 -20 41 -20 41 56 -30 79 -74 119 -93 156
-73 11 6 28 10 38 9 58 -5 81 23 108 135 9 39 19 74 23 78 3 4 20 4 38 0 l32
-7 -24 -68 c-13 -37 -33 -80 -44 -95 -19 -28 -33 -36 -143 -87 -57 -26 -131
-90 -181 -157 -57 -78 -125 -62 -242 55 -44 45 -104 118 -133 162 -55 83 -102
209 -102 271 0 18 -4 34 -10 34 -16 0 -12 -235 5 -307 8 -35 31 -104 51 -155
28 -73 35 -103 32 -144 -3 -59 -8 -59 69 7 40 34 104 72 110 65 2 -2 -10 -32
-26 -67 -16 -35 -32 -75 -36 -88 -7 -23 -7 -23 16 -7 36 25 68 21 80 -11 9
-24 7 -31 -16 -50 -22 -20 -38 -23 -104 -23 l-79 0 -13 33 c-7 17 -38 59 -69
92 -154 163 -207 266 -245 477 -10 53 -13 63 -14 36 -1 -43 21 -154 44 -217 8
-24 14 -46 12 -47 -6 -6 -86 139 -102 185 -28 80 -22 106 41 174 58 64 148
192 159 228 6 19 8 19 19 3 8 -11 28 -17 57 -17 24 -1 47 -5 50 -10 10 -14 42
40 35 58 -3 8 -12 12 -20 9 -26 -10 -54 35 -66 108 -20 116 4 200 69 244 51
34 102 33 134 -5z m932 -27 c17 -8 48 -30 69 -49 l40 -33 -74 36 c-66 33 -81
37 -154 37 -66 0 -88 -4 -118 -22 -49 -29 -49 -20 0 12 67 44 167 52 237 19z
m232 -25 c38 -33 92 -46 122 -30 25 14 27 4 4 -21 -11 -12 -30 -18 -58 -18
-44 0 -56 7 -108 66 -23 26 -25 31 -10 31 10 0 33 -13 50 -28z m-1030 -91 c21
-13 63 -26 93 -29 l55 -6 -50 -1 c-49 -2 -125 24 -139 47 -10 16 -2 14 41 -11z
m966 -10 c80 -19 91 -19 133 -5 l45 15 -21 -23 c-34 -36 -75 -38 -186 -9 -54
14 -127 26 -161 27 -67 2 -71 5 -21 17 42 10 100 4 211 -22z m-606 -4 c-3 -3
-12 -4 -19 -1 -8 3 -5 6 6 6 11 1 17 -2 13 -5z m528 -44 c92 -26 179 -26 225
0 l35 21 -27 -25 c-43 -39 -104 -43 -228 -15 -58 13 -121 23 -140 22 -28 -1
-31 0 -15 7 33 14 76 11 150 -10z m105 -124 c-16 -16 -113 -19 -133 -4 -16 12
-8 14 62 13 48 0 76 -4 71 -9z m823 -39 c32 -14 57 -28 57 -31 0 -3 -25 6 -56
20 -31 14 -88 29 -128 34 l-71 9 71 -3 c50 -2 87 -11 127 -29z m-478 -12 c-62
-17 -69 -17 -30 0 17 8 41 14 55 14 15 0 5 -6 -25 -14z m456 -46 c54 -27 123
-103 162 -177 77 -146 158 -377 156 -446 0 -22 -6 -9 -19 39 -25 95 -106 317
-140 385 -50 98 -137 181 -228 216 l-37 14 35 -6 c19 -4 51 -15 71 -25z m-166
-18 c90 -43 190 -154 220 -243 14 -42 14 -42 -3 -18 -81 118 -253 246 -357
266 -33 6 -36 8 -20 15 42 16 100 9 160 -20z m-288 2 c-20 -2 -52 -2 -70 0
-17 2 0 4 38 4 39 0 53 -2 32 -4z m7 -32 c3 -5 -25 -11 -62 -13 -45 -2 -86
-13 -124 -30 -66 -31 -74 -30 -22 2 65 41 193 66 208 41z m165 -15 c60 -22
151 -87 210 -151 28 -32 50 -60 47 -62 -3 -3 -28 14 -55 38 -68 60 -212 149
-275 171 l-51 17 41 1 c23 0 60 -7 83 -14z m486 -48 c113 -150 176 -347 195
-613 13 -177 36 -242 137 -386 84 -120 123 -229 105 -294 -8 -26 -9 -23 -14
34 -7 75 -67 203 -152 322 -75 106 -95 175 -106 351 -15 255 -71 432 -184 586
-25 34 -42 62 -37 62 5 0 30 -28 56 -62z m-147 -51 c63 -76 167 -292 198 -412
28 -104 33 -212 24 -475 -4 -118 11 -171 73 -257 18 -25 39 -55 47 -66 31 -44
-9 -5 -49 47 -77 100 -85 132 -87 366 -2 245 -20 357 -90 537 -61 158 -98 226
-164 297 -31 34 -42 50 -25 37 17 -12 49 -46 73 -74z m-581 27 c-3 -3 -41 -14
-84 -23 -43 -10 -87 -21 -98 -25 -11 -4 -6 1 10 10 17 10 48 23 70 30 41 13
113 19 102 8z m273 -86 c36 -26 90 -69 120 -97 38 -35 11 -18 -87 54 -79 58
-143 111 -143 117 0 6 10 2 23 -9 12 -11 51 -40 87 -65z m-2165 48 c-47 -47
-46 -145 3 -249 39 -83 93 -164 189 -279 l77 -92 -64 -59 -65 -59 -21 27 c-34
43 -201 364 -224 430 -27 78 -25 114 6 156 14 19 35 52 46 74 25 49 47 75 64
75 8 0 3 -10 -11 -24z m1763 -50 c-89 -30 -186 -81 -175 -92 2 -2 40 13 83 35
77 38 144 61 174 60 8 0 -5 -7 -30 -15 -209 -72 -319 -163 -370 -306 -13 -37
-19 -45 -20 -28 0 63 125 246 207 303 46 32 165 77 203 76 14 0 -19 -15 -72
-33z m382 -97 c41 -22 66 -37 55 -33 -11 4 -31 8 -44 9 -13 1 -28 9 -33 19 -5
9 -13 14 -18 11 -11 -7 -120 98 -120 115 0 7 19 -9 43 -34 23 -26 75 -65 117
-87z m-939 106 c-38 -17 -81 -20 -81 -6 0 12 25 18 75 19 l40 1 -34 -14z m719
-35 c7 -16 19 -35 28 -42 14 -12 14 -10 3 12 l-12 25 20 -25 c11 -14 19 -31
16 -37 -2 -7 -1 -12 3 -10 5 1 30 -21 58 -48 65 -67 147 -131 205 -161 53 -26
90 -69 110 -127 15 -43 27 -52 82 -62 45 -9 60 -33 52 -79 -4 -20 -2 -36 4
-40 6 -4 11 0 11 8 0 9 8 16 17 16 53 0 72 83 27 119 -14 11 -23 25 -19 31 12
19 35 10 55 -22 l20 -33 0 28 c0 47 -51 82 -87 59 -7 -4 -19 -23 -28 -42 -14
-32 -15 -32 -10 -6 13 63 55 97 95 76 38 -20 53 -56 47 -110 -7 -62 -28 -106
-74 -160 -32 -37 -40 -41 -67 -36 l-31 6 -17 -81 c-10 -47 -28 -98 -43 -120
-52 -79 -225 -189 -353 -225 -85 -24 -127 -11 -179 54 -20 26 -63 74 -94 107
-96 102 -134 208 -112 310 9 40 10 40 68 50 40 7 60 15 60 25 0 20 -63 34 -93
20 -14 -6 -26 -9 -27 -8 -2 2 -10 27 -18 55 -15 50 -15 53 3 63 13 7 34 7 66
0 54 -12 60 -10 45 19 -13 24 -48 35 -90 29 -27 -4 -29 -2 -35 40 -9 66 -7
121 4 142 6 11 54 48 108 84 53 35 110 78 126 95 17 17 33 31 37 31 3 0 12
-13 19 -30z m-2136 -18 c3 -5 12 -41 20 -82 19 -88 54 -166 128 -280 30 -47
62 -99 71 -116 l16 -31 -132 -5 c-73 -3 -140 -9 -150 -13 -14 -6 -20 -2 -24
14 -3 11 -10 21 -15 21 -5 0 -7 4 -4 8 3 5 -6 46 -19 93 -17 55 -23 69 -19 39
4 -25 13 -63 21 -85 7 -22 9 -35 4 -30 -23 23 -53 135 -58 216 -8 130 20 199
99 238 48 23 55 25 62 13z m2577 -171 c36 -12 75 -28 85 -36 27 -21 -160 47
-234 84 -34 17 -62 33 -62 36 0 2 33 -11 73 -29 39 -18 102 -43 138 -55z
m-125 -29 c73 -37 169 -66 195 -59 10 3 19 1 19 -4 0 -5 6 -9 13 -9 7 0 22 -6
32 -14 17 -12 9 -12 -55 -1 -41 7 -100 23 -131 34 -63 24 -166 87 -189 116
-10 13 -3 10 20 -7 19 -14 62 -39 96 -56z m-1452 -11 c17 -17 25 -31 19 -31
-15 0 -61 38 -74 62 -9 17 -8 18 8 10 10 -6 31 -24 47 -41z m-1206 -22 c8 -96
35 -266 47 -295 11 -26 22 -35 57 -44 148 -37 363 -148 500 -259 40 -32 74
-58 76 -56 1 1 -22 44 -53 96 -30 51 -55 97 -55 101 0 16 38 -12 74 -54 l36
-43 -25 46 -25 46 39 -7 c80 -14 158 -77 223 -179 34 -54 35 -74 6 -137 -22
-48 -23 -59 -25 -389 0 -187 -6 -416 -12 -510 -6 -93 -10 -186 -10 -205 2 -54
26 98 35 218 4 57 10 98 14 91 5 -7 10 0 15 20 5 26 10 30 29 25 31 -7 65 30
49 55 -7 11 -8 23 -2 32 5 8 9 144 9 303 0 279 -1 290 -22 327 l-22 40 91 92
c49 51 98 103 107 117 l16 24 0 -24 c0 -42 -40 -109 -88 -147 -85 -67 -79 -70
10 -6 49 36 88 100 88 146 0 15 6 27 13 27 6 0 57 -23 112 -50 55 -27 103 -50
108 -50 18 0 4 84 -31 186 l-38 112 60 -37 c34 -21 109 -63 168 -94 145 -78
161 -93 197 -187 69 -179 109 -395 96 -530 -15 -178 -78 -459 -128 -580 -44
-107 -169 -235 -153 -157 3 12 7 82 11 156 l6 133 51 102 c87 173 108 249 122
426 l5 65 -14 -62 c-20 -89 -71 -215 -106 -263 -17 -23 -32 -40 -34 -38 -3 2
16 63 40 136 53 155 71 230 80 333 7 76 -6 201 -28 264 -10 29 -12 12 -13
-113 -2 -185 -24 -316 -76 -452 -41 -107 -56 -160 -82 -285 l-14 -70 -1 98
c-1 77 -4 97 -15 97 -8 0 -61 15 -118 34 -90 30 -225 66 -246 66 -4 0 -7 -152
-7 -337 l0 -337 45 -48 c25 -26 54 -51 65 -54 11 -3 6 3 -12 15 -18 11 -44 38
-58 60 l-26 39 7 191 c6 166 9 191 23 191 28 0 193 -29 199 -35 5 -5 -24 -330
-35 -390 -3 -16 -3 -27 1 -24 14 13 56 239 66 359 21 229 15 210 61 210 l39 0
0 -193 c0 -167 -9 -306 -25 -383 -4 -16 -15 -24 -42 -29 -58 -10 -125 -43
-161 -78 l-33 -32 -57 33 c-31 17 -91 48 -132 67 l-75 36 18 147 c12 105 19
250 22 512 3 201 6 409 8 462 1 53 0 95 -3 92 -3 -3 -8 -180 -11 -392 -4 -308
-10 -431 -29 -604 l-24 -216 -53 20 -53 20 -36 -22 c-19 -12 -37 -20 -40 -17
-3 2 3 87 12 188 32 340 17 758 -36 1037 -22 117 -26 89 -5 -41 49 -313 60
-645 31 -980 -9 -108 -15 -201 -12 -206 3 -5 -15 -19 -39 -32 -51 -27 -55 -40
-22 -62 l22 -15 -44 -87 c-37 -73 -51 -92 -89 -114 -24 -14 -64 -41 -89 -60
l-45 -34 -57 13 c-107 24 -351 109 -445 155 -117 57 -146 79 -146 111 0 15
-19 42 -54 78 l-55 54 29 54 c18 34 38 99 55 183 20 96 42 165 84 265 95 220
91 201 88 485 -4 276 -9 310 -71 442 -70 147 -190 293 -295 358 -56 34 -59 32
142 119 84 37 164 73 180 81 28 15 36 8 15 -13 -13 -13 -8 -15 16 -6 9 3 16
17 16 29 0 23 -2 22 -112 -25 -62 -26 -160 -69 -218 -95 -58 -26 -116 -51
-130 -55 -22 -7 -23 -8 -4 -9 68 -3 229 -144 297 -261 20 -36 52 -101 69 -145
29 -73 32 -91 35 -215 l3 -135 -15 60 c-29 114 -78 250 -126 353 -39 80 -64
118 -120 177 -71 74 -166 135 -213 135 -12 0 -27 4 -35 9 -28 18 134 108 404
222 88 37 165 67 170 65 6 -1 11 -18 13 -37z m2997 11 c9 -16 13 -30 11 -30
-3 0 -12 14 -21 30 -9 17 -13 30 -11 30 3 0 12 -13 21 -30z m-265 10 c8 -5 11
-10 5 -10 -5 0 -17 5 -25 10 -8 5 -10 10 -5 10 6 0 17 -5 25 -10z m150 -116
c19 3 29 2 22 -3 -7 -4 -21 -30 -32 -57 -20 -52 -26 -50 -11 3 l9 32 -53 16
c-30 8 -56 19 -59 24 -3 5 15 2 42 -6 26 -8 63 -12 82 -9z m277 -86 c-3 -8 -6
-5 -6 6 -1 11 2 17 5 13 3 -3 4 -12 1 -19z m-1797 -284 c22 -64 39 -118 37
-120 -1 -2 -33 33 -70 77 -38 44 -75 83 -84 86 -18 7 -68 -47 -113 -122 -16
-28 -59 -84 -95 -125 -101 -114 -100 -111 -74 -155 22 -36 23 -47 23 -326 1
-180 -3 -291 -9 -297 -5 -6 -20 -13 -32 -17 -23 -6 -23 -5 -25 97 l-2 103 -6
-110 c-4 -80 -7 -35 -8 163 l-2 272 25 0 c15 0 29 8 36 22 10 18 8 24 -11 40
-25 20 -40 23 -40 8 0 -5 9 -10 21 -10 15 0 20 -5 17 -22 -4 -32 -30 -29 -39
5 -13 47 17 124 70 181 100 109 111 125 176 250 41 78 46 96 46 152 0 35 -3
69 -6 75 -4 6 3 22 16 35 l23 25 43 -85 c23 -46 61 -137 83 -202z m-1859 173
c153 -63 263 -222 345 -498 36 -121 58 -279 37 -266 -6 4 -13 25 -17 47 -18
111 -117 325 -203 438 -30 40 -60 75 -66 79 -12 7 -3 -9 29 -52 24 -33 123
-242 160 -343 29 -76 54 -213 54 -296 0 -65 -30 -188 -37 -151 -2 11 -7 27
-10 35 -8 24 -19 -14 -33 -120 -7 -52 -16 -101 -20 -109 -11 -21 -53 119 -91
301 -17 84 -37 164 -44 177 -12 24 -13 24 -19 4 -10 -30 17 -193 64 -396 22
-97 40 -190 40 -209 0 -43 -10 -78 -22 -78 -5 0 -54 28 -108 62 -65 40 -102
70 -109 87 -12 32 -95 379 -113 476 l-13 70 -3 -65 c-2 -46 6 -98 26 -180 39
-151 89 -311 105 -330 6 -9 44 -41 82 -72 138 -110 179 -169 150 -214 -22 -33
-37 -30 -60 13 -21 38 -112 113 -211 173 -76 46 -124 46 -220 1 -38 -18 -80
-42 -93 -54 l-24 -22 6 25 c3 14 29 156 57 315 56 316 86 461 130 630 41 159
82 347 77 352 -5 4 -57 -117 -77 -179 -11 -36 -30 -60 -30 -40 0 6 7 47 16 92
21 111 68 238 105 283 36 44 60 46 140 14z m3667 -161 c-3 -139 -17 -170 -20
-42 -1 62 11 186 18 186 2 0 3 -65 2 -144z m19 82 c-3 -7 -5 -2 -5 12 0 14 2
19 5 13 2 -7 2 -19 0 -25z m-2466 -8 c21 -12 26 -40 6 -40 -17 0 -37 20 -37
37 0 16 5 16 31 3z m2535 -163 c15 -23 50 -73 79 -112 97 -131 85 -128 -20 4
-78 99 -112 163 -120 223 -5 41 -5 41 14 -15 11 -32 32 -77 47 -100z m-287 33
c-22 -51 -43 -115 -46 -142 -3 -26 -10 -48 -16 -48 -11 0 -2 70 19 138 14 48
72 157 79 150 3 -2 -14 -46 -36 -98z m118 78 c-3 -8 -6 -5 -6 6 -1 11 2 17 5
13 3 -3 4 -12 1 -19z m-2027 -19 c0 -25 -45 -45 -131 -57 -63 -9 -63 -10 -17
-11 26 0 68 6 94 15 25 8 47 14 49 12 8 -7 -36 -114 -66 -160 l-32 -49 -42 78
c-23 43 -53 99 -68 123 l-26 45 87 1 c48 1 98 6 112 12 36 15 40 14 40 -9z
m1999 -130 c-26 -137 -23 -233 10 -296 12 -24 19 -43 16 -43 -4 0 -18 25 -32
56 -23 52 -25 64 -20 153 4 88 35 257 44 247 2 -2 -6 -55 -18 -117z m-75 -249
c10 -19 26 -44 35 -56 9 -11 2 -5 -15 13 -39 41 -54 93 -52 174 l1 64 7 -80
c3 -46 14 -95 24 -115z m-1017 148 c-3 -8 -6 -5 -6 6 -1 11 2 17 5 13 3 -3 4
-12 1 -19z m22 -58 c11 -24 11 -24 -3 -6 -9 11 -16 24 -16 30 0 12 5 7 19 -24z
m806 -113 c6 -15 10 -16 16 -5 6 9 8 5 7 -12 -2 -16 2 -24 10 -22 8 1 11 -2 8
-7 -10 -16 52 -60 106 -76 29 -8 77 -15 107 -15 l56 -1 -82 -79 c-136 -132
-341 -214 -424 -169 -19 10 -19 11 3 42 21 30 23 42 23 168 0 152 -5 139 90
236 l60 62 6 -52 c4 -29 10 -60 14 -70z m437 -126 c12 -10 -78 -116 -147 -173
-215 -179 -441 -247 -587 -175 -114 56 -166 190 -99 258 33 33 57 39 46 12
-25 -57 -18 -106 21 -153 132 -156 444 -66 643 184 50 63 55 67 85 60 17 -3
34 -9 38 -13z m-985 -58 c-2 -16 -4 -5 -4 22 0 28 2 40 4 28 2 -13 2 -35 0
-50z m1119 24 c59 -13 114 -39 114 -55 0 -4 -19 -18 -41 -32 -61 -37 -198
-177 -255 -261 -110 -158 -305 -531 -331 -632 -19 -75 -13 -186 15 -296 l19
-74 -116 7 c-166 10 -321 25 -431 42 -104 16 -334 70 -360 84 -9 5 -28 42 -41
82 -19 57 -24 94 -24 173 0 94 3 109 50 245 l49 145 0 145 c0 90 -5 154 -12
170 -10 21 -11 14 -10 -50 4 -111 -1 -224 -9 -217 -3 4 -19 -41 -34 -101 -59
-226 -59 -226 -55 38 2 143 9 252 16 277 7 24 30 63 52 88 42 48 27 42 280
114 60 17 109 31 110 31 2 0 4 -25 5 -57 5 -150 159 -253 336 -224 158 26 311
114 457 263 115 117 114 116 216 95z m280 -86 c70 -41 158 -138 182 -203 41
-110 37 -184 -15 -316 -30 -73 -39 -77 -18 -7 30 97 13 229 -41 338 -15 28
-60 86 -100 128 -97 99 -98 111 -8 60z m-119 -33 c54 -91 81 -206 122 -523 12
-88 23 -172 26 -187 l4 -27 -47 28 c-119 70 -212 85 -318 53 -38 -12 -86 -33
-108 -48 l-38 -26 4 133 c4 118 9 144 35 214 17 44 33 89 37 100 4 11 -18 -7
-49 -39 -49 -51 -55 -55 -40 -25 28 54 104 169 154 233 40 51 165 166 181 166
3 0 20 -24 37 -52z m306 -100 c17 -32 17 -32 0 -8 -10 14 -38 48 -63 75 l-44
50 45 -42 c24 -24 53 -57 62 -75z m-2525 -137 c92 -28 102 -34 102 -55 0 -29
-28 -36 -151 -36 l-89 0 0 66 c0 57 2 65 18 61 9 -3 63 -19 120 -36z m2402
-77 c11 -36 20 -78 19 -93 0 -14 -8 6 -18 44 -10 39 -21 80 -25 93 -4 12 -5
22 -2 22 3 0 14 -30 26 -66z m-2202 20 c6 -2 12 -10 12 -19 0 -11 -11 -15 -40
-15 -36 0 -40 2 -40 25 0 26 10 27 68 9z m-541 -74 c2 -12 -3 -20 -12 -20 -17
0 -20 16 -5 25 6 4 7 12 4 18 -4 7 -3 9 1 4 5 -4 10 -16 12 -27z m433 -31 l0
-61 -32 6 c-18 3 -67 11 -108 17 -41 6 -78 16 -82 23 -4 6 -8 26 -8 44 l0 32
115 0 115 0 0 -61z m1695 -229 c15 -28 20 -67 26 -186 5 -119 11 -158 25 -184
11 -18 24 -42 30 -54 7 -11 14 -63 15 -115 l4 -94 -280 -47 c-154 -27 -349
-60 -434 -75 -84 -14 -164 -24 -176 -21 -12 3 -59 37 -105 75 -46 38 -104 80
-129 93 -56 29 -141 79 -141 83 0 1 19 -2 43 -6 297 -61 457 -80 713 -85 l220
-5 -22 88 c-33 125 -32 241 2 341 24 72 85 196 142 287 l25 40 12 -50 c6 -27
20 -66 30 -85z m408 -55 c65 -17 119 -43 159 -77 23 -20 28 -33 34 -98 l6 -75
-23 34 c-32 47 -73 69 -160 87 -123 26 -245 4 -321 -57 l-38 -30 0 36 c0 62
45 122 120 161 72 36 137 42 223 19z m-1728 -89 c-6 -31 -11 -36 -34 -36 -15
0 -49 -11 -76 -24 -26 -14 -44 -21 -39 -16 29 27 149 118 152 115 2 -1 0 -19
-3 -39z m5 -85 c0 -5 3 -16 6 -25 5 -13 -1 -16 -30 -16 -20 0 -53 -7 -74 -15
l-37 -15 25 20 c27 22 90 59 103 60 4 0 7 -4 7 -9z m-2355 -12 c-97 -22 -150
-45 -183 -77 -18 -19 -31 -36 -28 -39 2 -3 33 11 68 30 122 68 235 92 288 62
24 -14 24 -14 -20 -15 -171 -2 -359 -134 -384 -270 l-7 -35 20 36 c53 97 264
229 380 237 41 3 67 -1 90 -12 31 -16 34 -36 6 -36 -23 0 -160 -97 -204 -145
-24 -26 -57 -76 -74 -113 -27 -57 -32 -81 -35 -164 l-4 -96 -80 33 c-44 19
-91 41 -104 50 -62 40 -92 185 -59 284 23 70 105 190 150 220 50 33 132 60
180 60 l40 -1 -40 -9z m1627 -110 c211 -90 348 -204 467 -391 24 -38 45 -68
48 -68 3 0 16 9 30 20 42 33 139 28 259 -14 55 -19 101 -33 103 -31 2 3 -41
26 -95 52 -83 41 -109 48 -170 51 -48 3 -81 -1 -100 -10 -43 -21 -58 -17 -70
20 -18 58 -112 180 -174 229 -33 25 -60 50 -60 55 0 20 95 67 158 78 112 20
232 -18 393 -126 84 -57 223 -199 215 -220 -3 -8 -2 -13 2 -10 11 7 86 -117
111 -184 l21 -55 -27 32 c-33 38 -195 148 -275 187 -86 42 -169 53 -242 32
-32 -9 -56 -19 -54 -21 2 -3 22 0 44 6 98 28 228 -18 397 -139 45 -32 91 -64
102 -71 26 -16 9 -10 -95 33 -121 50 -254 86 -335 93 -67 5 -72 4 -109 -26
-40 -32 -54 -35 -93 -25 -17 5 -23 14 -23 36 0 37 -66 110 -173 189 -100 75
-215 137 -395 215 l-145 62 32 16 c17 9 31 12 31 7 0 -5 26 -19 58 -31 149
-55 378 -187 468 -270 60 -54 91 -63 69 -21 -27 53 -167 166 -270 219 -51 26
-228 87 -277 96 -43 8 -48 18 -15 33 26 12 78 -1 189 -48z m746 38 c6 -7 24
-42 40 -78 l30 -66 -85 48 c-46 27 -88 49 -93 49 -25 0 -6 19 38 38 56 25 57
25 70 9z m1677 -26 c22 -10 55 -35 74 -54 30 -32 34 -44 42 -114 12 -113 11
-354 -2 -412 -17 -78 -14 -78 -269 -85 -124 -4 -290 -11 -370 -16 -80 -5 -254
-9 -387 -9 -212 -1 -242 1 -237 14 5 11 -1 15 -20 15 -37 0 -62 30 -131 157
-32 59 -74 130 -93 157 l-34 49 34 -24 c18 -12 63 -51 99 -85 45 -41 77 -63
98 -66 45 -7 205 14 516 66 427 71 551 79 642 41 53 -22 27 4 -31 31 -28 13
-70 26 -92 30 l-42 6 -7 122 c-4 67 -6 131 -4 142 10 49 138 70 214 35z
m-2613 -86 c59 -27 106 -50 104 -52 -5 -5 -209 87 -221 100 -7 7 -7 8 0 5 6
-2 58 -26 117 -53z m-1145 -5 c23 -10 69 -37 102 -60 125 -84 310 -161 521
-216 52 -13 97 -29 100 -35 4 -6 47 17 103 54 88 59 226 117 278 117 8 0 33
-15 55 -33 57 -49 69 -54 226 -93 79 -19 151 -42 160 -51 26 -23 22 -60 -8
-79 -33 -22 -161 -14 -359 21 -148 26 -205 31 -205 16 0 -28 228 -88 425 -111
157 -19 188 -40 88 -61 -46 -9 -98 -9 -247 0 -137 9 -192 9 -200 1 -31 -31 71
-45 317 -45 136 0 187 -3 187 -12 0 -28 -165 -59 -380 -71 -126 -7 -132 -9
-95 -20 58 -17 246 -15 346 4 161 31 158 -10 -3 -50 -108 -28 -274 -49 -356
-45 -60 3 -84 -15 -37 -27 27 -7 261 2 345 12 42 6 44 5 28 -11 -35 -37 -173
-66 -334 -72 -186 -7 -204 -1 -271 96 -26 36 -64 84 -85 107 -36 37 -39 46
-44 110 -5 64 4 121 31 189 7 17 4 16 -19 -5 -34 -33 -49 -113 -38 -199 l9
-63 -32 6 c-17 4 -107 18 -201 31 -408 61 -684 116 -709 141 -38 38 -24 168
29 271 30 59 100 133 163 173 55 35 56 35 110 10z m1463 -36 c0 -2 -9 0 -20 6
-11 6 -20 13 -20 16 0 2 9 0 20 -6 11 -6 20 -13 20 -16z m-170 -24 c8 -5 11
-10 5 -10 -5 0 -17 5 -25 10 -8 5 -10 10 -5 10 6 0 17 -5 25 -10z m221 -7 c13
-16 12 -17 -3 -4 -17 13 -22 21 -14 21 2 0 10 -8 17 -17z m2615 -18 c-23 -17
-36 -19 -36 -6 0 5 8 12 18 14 32 9 37 6 18 -8z m-2575 -12 c13 -16 12 -17 -3
-4 -17 13 -22 21 -14 21 2 0 10 -8 17 -17z m2522 -10 c-7 -2 -21 -2 -30 0 -10
3 -4 5 12 5 17 0 24 -2 18 -5z m-2473 -28 c13 -14 21 -25 18 -25 -2 0 -15 11
-28 25 -13 14 -21 25 -18 25 2 0 15 -11 28 -25z m83 -79 c16 -23 17 -27 4 -17
-10 8 -28 28 -40 45 -16 23 -17 27 -4 17 10 -8 28 -28 40 -45z m104 -276 c36
-8 63 -8 89 -1 21 6 44 7 53 2 20 -12 -108 -26 -146 -17 -40 10 -113 46 -113
57 0 4 15 0 33 -11 18 -11 56 -24 84 -30z m571 -26 c123 -43 160 -64 112 -64
-47 0 -350 113 -350 130 0 11 84 -12 238 -66z m-695 -52 c46 -26 112 -56 147
-67 l62 -19 102 34 c55 19 109 43 119 54 18 19 19 19 92 -4 l75 -23 -68 -33
c-37 -19 -98 -61 -137 -94 -77 -67 -132 -100 -167 -100 -21 0 -290 138 -312
161 -23 22 25 6 109 -36 50 -25 107 -49 127 -52 38 -6 98 12 98 29 0 5 -9 4
-19 -2 -44 -23 -91 -11 -212 53 -65 34 -119 68 -119 75 0 17 15 15 63 -9 36
-19 40 -19 27 -4 -8 10 -32 29 -53 42 -21 13 -35 28 -32 33 9 14 6 15 98 -38z
m-1365 -71 c273 -44 330 -55 343 -68 21 -21 -384 37 -546 78 -163 42 -106 39
203 -10z m2079 -7 l58 -26 -40 -19 c-49 -23 -68 -23 -105 -4 -36 18 -38 38 -8
59 29 20 27 21 95 -10z m1238 -16 c3 -18 18 -68 32 -111 23 -71 24 -80 10
-101 -38 -57 -197 -92 -472 -105 -184 -8 -1050 1 -1060 11 -4 4 13 56 37 117
37 95 47 112 71 121 19 6 35 6 47 0 40 -21 96 -12 144 25 26 19 57 35 70 35
14 0 37 5 53 11 19 8 145 11 398 11 204 0 420 3 480 7 196 14 183 15 190 -21z
m-2535 -335 c0 -22 -2 -25 -10 -13 -13 20 -13 40 0 40 6 0 10 -12 10 -27z
m235 -8 l80 -13 -107 -1 c-90 -1 -108 2 -108 14 0 18 26 18 135 0z"/>
<path d="M1870 4327 c-61 -31 -97 -148 -67 -217 l16 -35 -6 56 c-6 64 9 122
40 157 25 27 39 28 60 4 23 -25 21 -29 -9 -29 -14 0 -29 -4 -34 -9 -5 -5 4 -9
23 -9 48 0 41 -26 -13 -46 -24 -9 -46 -21 -48 -28 -2 -7 11 -6 38 4 58 20 90
19 90 -2 0 -12 -8 -18 -22 -19 -13 -1 -43 -3 -66 -4 -42 -4 -44 -5 -38 -34 11
-52 46 -77 46 -33 0 17 10 28 35 40 45 21 48 21 35 -2 -17 -32 -12 -36 14 -11
33 30 40 70 26 130 -8 34 -22 58 -42 75 -33 28 -43 30 -78 12z"/>
<path d="M2300 3952 c0 -5 25 -16 55 -26 36 -11 72 -33 107 -65 74 -67 99 -79
126 -62 22 14 -106 140 -154 151 -49 12 -134 13 -134 2z"/>
<path d="M2325 3848 c69 -57 83 -72 48 -48 -18 11 -35 25 -38 30 -4 6 -11 10
-16 10 -21 0 28 -50 72 -74 58 -32 83 -34 76 -5 -5 20 -5 20 14 3 10 -9 22
-14 26 -10 9 9 -8 37 -28 46 -194 92 -217 99 -154 48z"/>
<path d="M2023 3540 c0 -36 2 -50 4 -32 2 17 2 47 0 65 -2 17 -4 3 -4 -33z"/>
<path d="M2206 3378 c28 -49 88 -65 130 -34 17 13 15 14 -23 9 -32 -4 -51 0
-78 16 -20 11 -33 15 -29 9z"/>
<path d="M3505 3343 c-53 -14 -85 -36 -85 -59 0 -32 10 -35 57 -14 59 26 92
31 151 21 61 -9 65 3 11 30 -37 20 -103 31 -134 22z"/>
<path d="M3514 3186 c-17 -8 -34 -23 -37 -35 -5 -19 -1 -21 43 -21 62 0 162
43 134 57 -30 15 -106 14 -140 -1z m83 -2 c-3 -3 -12 -4 -19 -1 -8 3 -5 6 6 6
11 1 17 -2 13 -5z m-40 -10 c-3 -3 -12 -4 -19 -1 -8 3 -5 6 6 6 11 1 17 -2 13
-5z"/>
<path d="M3318 3100 c-4 -25 -16 -66 -27 -90 -23 -51 -27 -103 -8 -118 24 -20
62 -23 92 -8 17 9 38 16 47 16 9 0 20 5 23 10 4 6 -12 10 -40 10 -38 0 -46 -3
-41 -15 8 -23 -30 -19 -54 5 -25 25 -25 23 1 94 11 33 19 76 17 100 l-3 41 -7
-45z"/>
<path d="M3498 2944 c6 -12 27 -35 47 -52 l35 -31 -38 -9 c-35 -9 -233 -36
-249 -34 -4 0 -15 20 -25 44 l-19 43 6 -43 c8 -67 109 -162 170 -162 44 1 74
21 120 81 44 58 61 69 67 42 3 -16 5 -15 16 5 16 28 9 40 -34 58 -18 8 -50 29
-70 46 -28 24 -34 27 -26 12z m-15 -159 c-57 -38 -111 -46 -133 -20 -11 13 -8
15 16 16 16 0 54 8 84 19 82 27 90 24 33 -15z m37 -9 c0 -2 -12 -11 -27 -20
l-28 -17 24 20 c23 21 31 25 31 17z m-63 -42 c-3 -3 -12 -4 -19 -1 -8 3 -5 6
6 6 11 1 17 -2 13 -5z"/>
<path d="M1777 2815 c9 -19 18 -33 21 -31 4 5 -26 66 -33 66 -3 0 3 -16 12
-35z"/>
<path d="M1801 2765 c1 -19 18 -51 18 -35 0 8 -4 22 -9 30 -5 8 -9 11 -9 5z"/>
<path d="M1929 2572 l5 -97 6 65 c7 65 3 117 -9 124 -3 2 -4 -39 -2 -92z"/>
<path d="M1116 2517 c-4 -66 -5 -121 -3 -124 7 -6 20 198 15 223 -2 10 -8 -34
-12 -99z"/>
<path d="M2763 2555 c0 -27 2 -38 4 -22 2 15 2 37 0 50 -2 12 -4 0 -4 -28z"/>
<path d="M2737 2393 c-10 -61 -29 -148 -43 -193 -14 -45 -24 -84 -21 -86 14
-14 92 323 85 368 -2 12 -11 -28 -21 -89z"/>
<path d="M1102 2350 c0 -19 2 -27 5 -17 2 9 2 25 0 35 -3 9 -5 1 -5 -18z"/>
<path d="M1170 2152 c0 -107 -7 -102 134 -102 108 0 324 -21 344 -34 11 -6 -4
-175 -23 -266 -42 -201 -50 -220 -132 -309 -76 -83 -77 -83 -120 -78 -37 4
-246 108 -278 138 -5 6 -12 81 -15 167 l-6 157 -2 -156 c-1 -111 2 -160 11
-171 14 -19 169 -113 258 -159 34 -17 68 -27 78 -24 19 6 122 107 161 157 24
32 41 84 71 228 18 86 23 139 23 292 1 102 -2 190 -6 194 -15 14 -105 23 -300
30 l-198 7 0 -71z m463 29 c26 -10 27 -13 27 -81 0 -63 -2 -71 -17 -66 -42 13
-169 27 -305 33 l-148 6 0 65 0 65 208 -5 c114 -3 219 -11 235 -17z"/>
<path d="M1083 1890 c0 -30 2 -43 4 -27 2 15 2 39 0 55 -2 15 -4 2 -4 -28z"/>
<path d="M2548 1813 c6 -2 18 -2 25 0 6 3 1 5 -13 5 -14 0 -19 -2 -12 -5z"/>
<path d="M1921 1464 c0 -11 3 -14 6 -6 3 7 2 16 -1 19 -3 4 -6 -2 -5 -13z"/>
<path d="M885 1304 c39 -32 99 -60 320 -151 257 -106 357 -145 361 -140 14 14
-658 318 -700 317 -6 -1 3 -12 19 -26z"/>
<path d="M3176 1827 c-104 -243 -116 -281 -116 -367 0 -57 7 -100 31 -177 18
-57 34 -101 37 -99 2 2 -3 40 -12 83 -38 193 -33 233 50 444 53 134 88 251 82
269 -2 5 -34 -63 -72 -153z"/>
<path d="M3686 1857 c-43 -96 -85 -224 -100 -307 -17 -86 -20 -253 -7 -330 6
-33 8 -10 9 86 1 157 19 245 92 438 53 141 56 151 40 161 -6 4 -21 -17 -34
-48z"/>
<path d="M3230 1474 c-1 -42 86 -301 98 -290 2 3 13 1 24 -5 18 -10 18 -7 -3
33 -12 24 -44 95 -70 158 -27 63 -49 110 -49 104z"/>
<path d="M427 1230 c-45 -40 -94 -107 -85 -116 3 -2 27 23 54 57 27 34 58 67
68 75 11 7 17 16 14 19 -3 3 -26 -13 -51 -35z"/>
<path d="M2560 1250 c-52 -11 -140 -49 -140 -62 0 -5 24 4 53 18 38 20 75 29
137 34 47 4 78 8 69 9 -9 0 -29 3 -45 5 -16 3 -49 0 -74 -4z"/>
<path d="M2583 1210 c-39 -8 -123 -45 -123 -55 0 -2 21 6 48 17 55 25 193 35
262 19 55 -12 66 -6 14 8 -60 15 -155 21 -201 11z"/>
<path d="M2685 1150 c101 -8 194 -33 284 -79 24 -13 40 -18 36 -12 -11 19 -80
50 -170 76 -65 19 -108 25 -169 23 l-81 -1 100 -7z"/>
<path d="M2490 1137 c0 -2 15 -16 33 -33 l32 -29 -29 33 c-28 30 -36 37 -36
29z"/>
<path d="M2566 1057 c3 -10 9 -15 12 -12 3 3 0 11 -7 18 -10 9 -11 8 -5 -6z"/>
<path d="M2930 1032 c66 -22 164 -71 157 -78 -3 -3 -24 4 -48 17 -112 56 -223
74 -311 47 -22 -6 -58 -29 -81 -50 l-42 -38 53 35 c95 62 169 70 288 30 41
-14 97 -36 124 -50 30 -15 47 -20 46 -12 -5 39 -123 106 -199 113 -42 5 -42 5
13 -14z"/>
<path d="M2581 1014 c0 -11 3 -14 6 -6 3 7 2 16 -1 19 -3 4 -6 -2 -5 -13z"/>
<path d="M2126 914 c-9 -25 -7 -64 4 -64 6 0 10 11 10 24 0 13 3 31 6 40 3 9
2 16 -4 16 -5 0 -13 -7 -16 -16z"/>
<path d="M2228 914 c-14 -13 -9 -64 7 -70 24 -9 87 6 82 19 -5 16 -45 21 -62
7 -11 -9 -14 -5 -17 20 -2 18 -6 28 -10 24z"/>
<path d="M510 850 c31 -23 168 -88 237 -113 68 -25 265 -68 301 -66 9 0 -35
12 -98 26 -143 30 -229 59 -345 114 -104 50 -115 55 -95 39z"/>
<path d="M1083 663 c9 -2 23 -2 30 0 6 3 -1 5 -18 5 -16 0 -22 -2 -12 -5z"/>
<path d="M4090 304 l-145 -13 140 5 c77 2 156 8 175 13 34 9 34 9 5 8 -16 0
-95 -6 -175 -13z"/>
<path d="M3620 4090 c-69 -11 -142 -35 -183 -62 -18 -11 -23 -17 -12 -13 141
52 172 58 275 58 67 0 122 -6 152 -16 27 -8 46 -12 43 -7 -7 12 -107 38 -165
43 -30 3 -80 1 -110 -3z"/>
<path d="M364 1495 c-77 -17 -139 -48 -160 -80 -9 -14 -15 -27 -13 -30 3 -2
27 10 54 27 75 47 170 77 245 79 48 1 58 3 40 9 -37 12 -97 10 -166 -5z"/>
</g>
</svg>